<?xml version="1.0" standalone="yes"?>
<svg xmlns="http://www.w3.org/2000/svg" width="734" height="596">
<path style="fill:#0d0e13; stroke:none;" d="M0 0L0 596L734 596L734 0L0 0z"/>
<path style="fill:#f75724; stroke:none;" d="M117 91.5293C88.8854 98.0158 99.149 141.853 127 135.471C155.725 128.888 145.607 84.9292 117 91.5293M188.667 91.3333L189.333 91.6667L188.667 91.3333z"/>
<path style="fill:#fccf03; stroke:none;" d="M190 91.4684C161.993 96.6169 168.766 140.132 197 135.177C225.589 130.161 218.187 86.2866 190 91.4684z"/>
<path style="fill:#f75724; stroke:none;" d="M197.667 91.3333L198.333 91.6667L197.667 91.3333M185 92L186 93L185 92M201 92L202 93L201 92M183 93L184 94L183 93M203 93L204 94L203 93M181 94L182 95L181 94M205 94L206 95L205 94M208 96L209 97L208 96M336.667 96.3333L337.333 96.6667L336.667 96.3333z"/>
<path style="fill:#eaeef2; stroke:none;" d="M338 96.5324C322.573 100.208 319.926 123.178 335.004 129.387C348.903 135.11 371.1 131 386 131L502 131C516.886 131 544.103 136.205 556.985 128.005C570.225 119.578 565.688 98.2845 550 96.1883C535.5 94.2508 519.632 96 505 96L415 96L364 96C355.751 96 346.053 94.6138 338 96.5324z"/>
<path style="fill:#f75724; stroke:none;" d="M552 96L553 97L552 96M177 97L178 98L177 97M209 97L210 98L209 97M334 97L335 98L334 97M210 98L211 99L210 98M332 98L333 99L332 98M556 98L557 99L556 98M331 99L332 100L331 99M559 100L560 101L559 100M174 101L175 102L174 101M212 101L213 102L212 101M560 101L561 102L560 101M173 103L174 104L173 103M213 103L214 104L213 103M327 103L328 104L327 103M562 104L563 105L562 104M172.333 105.667L172.667 106.333L172.333 105.667M214 105L215 106L214 105M325 107L326 108L325 107M215 108L216 109L215 108M564 108L565 109L564 108M171 109L171 112L172 112L171 109M324 110L324 116L325 116L324 110M171 115L171 118L172 118L171 115M215.333 117.667L215.667 118.333L215.333 117.667M564 118L565 119L564 118M325 119L326 120L325 119M172 120L173 121L172 120M214 121L215 122L214 121M326 121L327 122L326 121M562 122L563 123L562 122M173 123L174 124L173 123M213 123L214 124L213 123M327 123L328 124L327 123M328 124L329 125L328 124M212 125L213 126L212 125M560 125L561 126L560 125M175 126L176 127L175 126M559 126L560 127L559 126M331 127L332 128L331 127M332 128L333 129L332 128M556 128L557 129L556 128M209 129L210 130L209 129M334 129L335 130L334 129M554 129L555 130L554 129M337.667 130.333L338.333 130.667L337.667 130.333M551 130L552 131L551 130M180 131L181 132L180 131M181 132L182 133L181 132M205 132L206 133L205 132M183 133L184 134L183 133M203 133L204 134L203 133M186 134L187 135L186 134M200.667 134.333L201.333 134.667L200.667 134.333M189 135L189 136L192 136L189 135M195 135L195 136L198 136L195 135z"/>
<path style="fill:#eaeef2; stroke:none;" d="M64 158L64 375L64 435C64 442.12 61.8528 453.53 65.179 459.985C69.2834 467.949 79.3027 468 87 468L146 468L351 468L405 468C410.234 468 420.924 470.035 425.366 466.972C428.417 464.868 430.437 459.958 432.63 457C434.841 454.017 437.302 451.132 439.3 448C452.162 427.843 413.633 431.952 408.009 423.811C405.295 419.882 406 414.517 406 410C406 398.835 404.224 385.983 406.228 375C409.176 358.849 430.844 370.596 437.443 360.686C448.383 344.257 424.307 339.344 426.842 325C428.865 313.548 448.132 301.813 456 293.999C458.876 291.143 462.454 286.226 467 286.542C475.59 287.138 481.181 297.479 489 300.103C493.466 301.601 498.668 298.029 503 297C503.974 289.304 503.673 275.009 509.279 269.228C516.778 261.495 541.807 265.999 552 266C556.296 266 561.296 265.364 564.772 268.434C572.108 274.912 568.016 310.802 588 298.978C603.78 289.642 600 275.263 600 259L600 158L64 158z"/>
<path style="fill:#f75724; stroke:none;" d="M175 231L175 232L192 232L175 231M244 322L245 322L245 232L283 232L254 231L245.028 232.603L244 256L244 322M334 231L334 232L349 232L334 231z"/>
<path style="fill:#0d0e13; stroke:none;" d="M136 322L152 322C153.616 316.348 156.503 306.337 161.275 302.603C164.166 300.341 168.569 301 172 301C180.38 300.999 197.501 297.728 204.787 302.028C211.343 305.897 209.772 316.774 215.649 320.972C219.164 323.483 226.852 322 231 322C224.316 298.789 211.044 276.176 201.424 254C199.168 248.798 195.669 234.065 189.786 232.318C185.904 231.165 177.064 230.902 174.353 234.318C167.518 242.93 163.957 256.927 159.576 267C151.784 284.912 141.157 303.146 136 322M245 232L245 322L259 322C259 316.193 256.294 300.913 260.603 296.603C263.993 293.214 273.583 295 278 295C288.689 294.999 301.211 293.642 308.66 284.957C320.869 270.721 316.464 242.881 299 235.338C283.182 228.506 261.884 232 245 232z"/>
<path style="fill:#f75724; stroke:none;" d="M289 232L290 233L289 232z"/>
<path style="fill:#03b9eb; stroke:none;" d="M290 232L291 233L290 232z"/>
<path style="fill:#0d0e13; stroke:none;" d="M334 232L334 322L349 322L349 232L334 232z"/>
<path style="fill:#f75724; stroke:none;" d="M174 233L175 234L174 233M192 233L193 234L192 233M293.667 233.333L294.333 233.667L293.667 233.333M297 234L298 235L297 234M173 235L174 236L173 235M299 235L300 236L299 235M301 236L302 237L301 236M172 237L173 238L172 237M303 237L304 238L303 237M194 238L195 239L194 238M195 240L196 241L195 240M170 242L171 243L170 242M196 242L197 243L196 242M169 244L170 245L169 244M310 244L311 245L310 244z"/>
<path style="fill:#eaeef2; stroke:none;" d="M260 245L260 282C269.662 282 283.287 284.007 291.985 278.91C302.046 273.015 303.068 254.812 292.907 248.533C283.767 242.886 270.233 245 260 245z"/>
<path style="fill:#f75724; stroke:none;" d="M283.667 245.333L284.333 245.667L283.667 245.333M168 246L169 247L168 246M259 246L259 281L260 281L259 246M288 246L289 247L288 246M311 246L312 247L311 246M198 247L199 248L198 247M293 248L294 249L293 248M312 248L313 249L312 248M199 249L200 250L199 249M294 249L295 250L294 249M183 250L182 252L183 250M166 251L167 252L166 251z"/>
<path style="fill:#eaeef2; stroke:none;" d="M183 251L167 287L199 287C197.089 276.244 189.973 259.417 183 251z"/>
<path style="fill:#fccf03; stroke:none;" d="M200 251L201 252L200 251z"/>
<path style="fill:#f75724; stroke:none;" d="M296 251L297 252L296 251M313 251L314 252L313 251M184 252L185 253L184 252M165 253L166 254L165 253M181 253L182 254L181 253M185 254L186 255L185 254M201 254L202 255L201 254M298 254L299 255L298 254M314.333 254.667L314.667 255.333L314.333 254.667M164 255L165 256L164 255z"/>
<path style="fill:#fccf03; stroke:none;" d="M180 256L181 257L180 256z"/>
<path style="fill:#f75724; stroke:none;" d="M186 256L187 257L186 256M202 256L203 257L202 256M299 257L300 258L299 257M163 258L164 259L163 258M179 258L180 259L179 258M203 258L204 259L203 258M162 260L163 261L162 260M178 260L179 261L178 260M188 261L189 262L188 261M161 262L162 263L161 262M189 263L190 264L189 263M205 263L206 264L205 263M176 265L177 266L176 265M190 265L191 266L190 265M206 265L207 266L206 265z"/>
<path style="fill:#03b9eb; stroke:none;" d="M503 297C498.969 297.604 493.993 300.898 490 299.933C481.419 297.859 476.321 286.916 467 286.272C461.895 285.92 458.254 290.767 455 293.999C447.115 301.83 428.157 313.322 426.488 325C424.424 339.451 446.887 344.034 437.443 359.853C432.671 367.846 417.205 362.766 410.109 367.742C405.624 370.886 406.002 376.134 406 381C405.995 393.136 402.841 410.42 406.653 421.96C411.062 435.31 433.533 424.244 439.041 438.001C443.953 450.27 427.342 456.405 426.258 468C425.78 473.103 429.729 476.678 433.004 480C441.2 488.313 452.175 503.07 463 507.718C476.469 513.5 483.61 490.52 497.981 496.699C507.984 500.999 502.101 517.089 507.738 524.867C510.863 529.177 516.23 528.992 521 529C533.001 529.019 551.787 532.554 562.982 528.107C577.334 522.405 563.052 497.43 582 494.93C591.048 493.736 597.975 507.271 607 508.512C612.004 509.201 615.759 505.18 619 501.995C626.394 494.728 633.688 487.35 640.999 480C644.288 476.694 648.726 473.073 648.786 468C648.914 457.316 632.625 450.834 635.646 440C639.826 425.007 656.309 434.291 665.772 426.347C669.715 423.036 669 417.622 669 413C669.001 401.217 672.708 381.97 668.258 371.044C663.612 359.639 644.442 368.709 638.086 359.772C627.185 344.446 656.063 335.286 647.258 321C640.848 310.6 628.684 301.567 620 293.004C616.032 289.091 612.024 285.219 606 286.232C593.931 288.262 589.87 304.629 576.055 297.756C565.76 292.635 573.117 275.859 565.57 268.434C562.346 265.261 557.13 266 553 266L522 266C517.76 266 512.671 265.327 509.279 268.434C503.58 273.653 503.582 289.626 503 297z"/>
<path style="fill:#f75724; stroke:none;" d="M159 267L160 268L159 267M175 267L176 268L175 267M207 267L208 268L207 267M299 267L300 268L299 267M158 269L159 270L158 269M174 269L175 270L174 269M192 270L193 271L192 270M157 271L158 272L157 271M298 271L299 272L298 271M193 272L194 273L193 272M209 272L210 273L209 272M314 272L315 273L314 272M297 273L298 274L297 273M172 274L173 275L172 274M194 274L195 275L194 274M210 274L211 275L210 274M155 276L156 277L155 276M171 276L172 277L171 276M211 276L212 277L211 276M295 276L296 277L295 276M313 276L314 277L313 276M294 277L295 278L294 277M154 278L155 279L154 278M170 278L171 279L170 278M293 278L294 279L293 278M312 278L313 279L312 278M196 279L197 280L196 279M212 279L213 280L212 279M291 279L292 280L291 279M153 280L154 281L153 280M288 280L289 281L288 280M197 281L198 282L197 281M213 281L214 282L213 281M281 281L281 282L284 282L281 281M310 282L311 283L310 282M168 283L169 284L168 283M198 283L199 284L198 283M214 283L215 284L214 283M151 285L152 286L151 285M167 285L168 286L167 285z"/>
<path style="fill:#fccf03; stroke:none;" d="M199 286L167 287L167 288L200 287L199 286z"/>
<path style="fill:#f75724; stroke:none;" d="M150 287L151 288L150 287M199 287L200 288L199 287M216 288L217 289L216 288M303 289L304 290L303 289M217 290L218 291L217 290M301 290L302 291L301 290M299 291L300 292L299 291M148 292L149 293L148 292M218 292L219 293L218 292M297 292L298 293L297 292M293 293L294 294L293 293M147 294L148 295L147 294M288 294L289 295L288 294z"/>
<path style="fill:#fccf03; stroke:none;" d="M289 294L290 295L289 294z"/>
<path style="fill:#f75724; stroke:none;" d="M260 295L260 296L281 296L260 295M146 296L147 297L146 296M259 296L259 322L260 322L259 296M220 297L221 298L220 297M221 299L222 300L221 299M144 301L145 302L144 301M161 301L161 302L206 302C194.299 297.09 173.742 301 161 301M222 301L223 302L222 301M143 303L144 304L143 303M159 303L160 304L159 303M207 304L208 305L207 304M223 304L224 305L223 304M142 305L143 306L142 305M208 306L209 307L208 306M224 306L225 307L224 306M157 308L158 309L157 308M209 308L210 309L209 308M225 308L226 309L225 308M140 310L141 311L140 310M156 310L157 311L156 310M210 311L211 312L210 311M139 312L140 313L139 312M155 312L156 313L155 312M211 313L212 314L211 313M227 313L228 314L227 313M212 315L213 316L212 315M228 315L229 316L228 315M137 317L138 318L137 317M153 317L154 318L153 317M229 317L230 318L229 317M136 319L137 320L136 319M152 319L153 320L152 319M214 320L215 321L214 320M135 321L136 322L135 321z"/>
<path style="fill:#fccf03; stroke:none;" d="M136 322L136 323L151 323L136 322M216 322L216 323L231 323L216 322M245 322L245 323L259 323L245 322M334 322L334 323L349 323L334 322z"/>
<path style="fill:#eaeef2; stroke:none;" d="M530 345.439C478.439 353.492 468.16 428.297 519 446.453C527.706 449.562 537.888 450.027 547 448.7C554.136 447.661 561.126 444.684 567 440.56C610.545 409.993 583.95 337.013 530 345.439z"/>
</svg>
