<?xml version="1.0" standalone="yes"?>
<svg xmlns="http://www.w3.org/2000/svg" width="963" height="421">
<path style="fill:#0d0d0d; stroke:none;" d="M0 0L1 1L0 0z"/>
<path style="fill:#63615e; stroke:none;" d="M0 421L1 421L1 1L963 1C957.293 -1.3949 949.154 0 943 0L899 0L748 0L224 0L56 0L15 0C11.5242 0 3.46838 -1.47809 1.02778 1.60339C-3.12695 6.84915 0 24.4015 0 31L0 111L0 421z"/>
<path style="fill:#ffffff; stroke:none;" d="M1 1L1 420L962 420L962 1L1 1z"/>
<path style="fill:#aaa9a9; stroke:none;" d="M962 1L962 420L1 420L1 421L713 421L897 421L944 421C948.32 421 957.852 422.779 961.397 419.972C965.554 416.679 963 400.956 963 396L963 323L963 96L963 30C963 21.4662 965.306 8.87885 962 1z"/>
<path style="fill:#f2de1e; stroke:none;" d="M632 91L632 331L873 331L873 91L632 91z"/>
<path style="fill:#aaa9a9; stroke:none;" d="M82 181L83 182L82 181z"/>
<path style="fill:#63615e; stroke:none;" d="M82 184L83 184L102 182L149 182C135.879 176.494 112.3 181 98 181C92.9381 181 85.0572 179.284 82 184z"/>
<path style="fill:#0d0d0d; stroke:none;" d="M83 182L83 281L132 281L151.7 279.972L181 246C185.307 257.121 198.567 273.72 208 281L188.87 255L182.078 244L188.265 234L206 210C197.034 214.902 185.153 232.679 181 242L153 210C157.942 218.673 164.861 225.968 170.706 234C172.671 236.701 176.636 240.454 176.684 244C176.75 248.97 169.511 255.288 166.651 259C162.005 265.03 156.734 275.303 149.91 278.972C140.918 283.807 121.163 280 111 280C104.792 280 91.5961 282.494 86.3179 278.972C83.0632 276.8 84.0002 271.341 84 268L84 241C84.0014 237.85 83.263 233.066 86.3179 231.028C90.2128 228.429 98.4974 230 103 230L145 230L145 229L103 229L86.3179 227.972L84 219L84 194L86.3179 184.028L104 183L149 183L128 182L83 182z"/>
<path style="fill:#aaa9a9; stroke:none;" d="M85 183L85 184L149 184L129 183L85 183M82 184L82 226L83 226C83 214.043 86.6107 194.988 82 184z"/>
<path style="fill:#63615e; stroke:none;" d="M84 184L84 215L85.0278 227.397L100 229L145 229L145 228L85 228C85 215.52 88.8102 195.463 84 184z"/>
<path style="fill:#aaa9a9; stroke:none;" d="M811 199L811 200L820 200L811 199M806 200L807 201L806 200z"/>
<path style="fill:#63615e; stroke:none;" d="M807 200L808 201L807 200z"/>
<path style="fill:#0d0d0d; stroke:none;" d="M794 279C789.589 280.606 779.111 284.617 777.252 289.263C774.338 296.548 789.85 305.839 795 307.982C809.648 314.079 831.331 314.839 843.985 303.787C867.973 282.835 846.788 255.571 825 245.861C818.065 242.77 801.371 237.609 804.934 227.004C810.757 209.668 823.363 227.24 831.089 227.263C836.218 227.279 842.902 220.765 847 218C833.562 191.023 783.619 194.456 782.04 228C781.171 246.463 793.559 256.62 809 263.691C816.309 267.038 827.041 269.7 830.334 278.001C833.685 286.447 823.147 292.65 816 292.653C806.331 292.656 799.154 286.476 794 279z"/>
<path style="fill:#63615e; stroke:none;" d="M823 200L824 201L823 200z"/>
<path style="fill:#aaa9a9; stroke:none;" d="M824 200L825 201L824 200z"/>
<path style="fill:#63615e; stroke:none;" d="M740 201L741 202L740 201z"/>
<path style="fill:#0d0d0d; stroke:none;" d="M714 281L696 291C700.415 313.821 737.582 318.432 752.907 304.671C770.451 288.917 763 249.192 763 228C763 222.154 765.685 207.291 761.972 202.603C758.862 198.677 741.09 199.528 740.148 205.059C735.888 230.061 743.742 256.929 739.786 282C737.103 299.006 719.623 290.727 714 281z"/>
<path style="fill:#63615e; stroke:none;" d="M762 201L763 202L762 201z"/>
<path style="fill:#aaa9a9; stroke:none;" d="M802 201L803 202L802 201z"/>
<path style="fill:#63615e; stroke:none;" d="M803 201L804 202L803 201M827 201L828 202L827 201z"/>
<path style="fill:#aaa9a9; stroke:none;" d="M828.667 201.333L829.333 201.667L828.667 201.333z"/>
<path style="fill:#63615e; stroke:none;" d="M800 202L801 203L800 202M830 202L831 203L830 202M797.667 203.333L798.333 203.667L797.667 203.333M832.667 203.333L833.333 203.667L832.667 203.333M796 204L797 205L796 204M834 204L835 205L834 204M794 205L795 206L794 205M836 205L837 206L836 205z"/>
<path style="fill:#aaa9a9; stroke:none;" d="M244 207L244 208L252 208L244 207M318 207L318 208L323 210C323.488 207.041 320.484 207.118 318 207M353 207L353 208L360 208L353 207M419 207L419 208L428 208L419 207M484 207L484 208L493 208L484 207M791 207L792 208L791 207M839 207L840 208L839 207M240 208L241 209L240 208z"/>
<path style="fill:#63615e; stroke:none;" d="M241 208L241 209L244 209L241 208z"/>
<path style="fill:#0d0d0d; stroke:none;" d="M218 229L218 210L217 210L217 298L218 298C218 288.592 214.27 268.564 220 261C217.69 248.599 216.584 235.151 223.836 224C234.234 208.01 258.216 203.678 269.895 221.004C281.64 238.429 279.598 276.09 254 280.671C240.499 283.087 233.082 276.326 223 269C231.975 284.484 256.459 287.152 268.79 273.907C285.829 255.604 280.961 214.419 254 208.669C247.796 207.346 240.75 208.36 235.001 211.046C226.621 214.962 224.108 222.976 218 229z"/>
<path style="fill:#63615e; stroke:none;" d="M253.667 208.333L254.333 208.667L253.667 208.333z"/>
<path style="fill:#aaa9a9; stroke:none;" d="M255.667 208.333L256.333 208.667L255.667 208.333M313.667 208.333L314.333 208.667L313.667 208.333z"/>
<path style="fill:#63615e; stroke:none;" d="M315.667 208.333L316.333 208.667L315.667 208.333z"/>
<path style="fill:#0d0d0d; stroke:none;" d="M297 224L298 224C304.066 214.304 311.906 210.433 323 209C312.787 204.835 300.441 215.054 297 224z"/>
<path style="fill:#aaa9a9; stroke:none;" d="M348.667 208.333L349.333 208.667L348.667 208.333z"/>
<path style="fill:#63615e; stroke:none;" d="M350.667 208.333L351.333 208.667L350.667 208.333z"/>
<path style="fill:#0d0d0d; stroke:none;" d="M386 257L385 257C379.269 277.189 356.584 289.869 338.04 275.39C332.81 271.307 322.02 253.378 327.773 246.603C330.488 243.407 339.242 245 343 245L387 245C387 236.277 385.934 228.512 381.034 221C371.264 206.022 348.925 203.953 336.093 216.185C328.717 223.217 325.428 234.054 325.04 244C324.59 255.557 327.776 271.043 338.039 277.867C356.134 289.896 384.062 279.198 386 257z"/>
<path style="fill:#63615e; stroke:none;" d="M361 208L361 209L364 209L361 208z"/>
<path style="fill:#aaa9a9; stroke:none;" d="M364 208L365 209L364 208M414 208L415 209L414 208z"/>
<path style="fill:#63615e; stroke:none;" d="M415 208L415 209L418 209L415 208z"/>
<path style="fill:#0d0d0d; stroke:none;" d="M398 258L397 258C397.02 265.157 398.174 271.778 404.043 276.606C416.102 286.526 445.168 285.065 450.061 268C459.194 236.147 400.369 252.17 401.059 226C401.708 201.375 446.422 205.432 447 230L449 230C447.749 214.686 435.828 207.076 421 208.091C410.808 208.789 399.445 214.349 399.344 226C399.189 244.007 424.524 244.085 437 248.696C444.585 251.5 450.886 258.367 448.686 267C442.233 292.328 398.522 282.506 398 258z"/>
<path style="fill:#63615e; stroke:none;" d="M428 208L428 209L432 209L428 208z"/>
<path style="fill:#aaa9a9; stroke:none;" d="M432 208L433 209L432 208M479.667 208.333L480.333 208.667L479.667 208.333z"/>
<path style="fill:#63615e; stroke:none;" d="M481.667 208.333L482.333 208.667L481.667 208.333z"/>
<path style="fill:#0d0d0d; stroke:none;" d="M463 258L462 258C462.379 276.285 475.828 282.026 492 282C501.271 281.985 512.196 279.047 515.347 269C525.731 235.894 465.992 252.578 466.36 226C466.499 215.897 476.298 210.924 485 209.885C498.946 208.221 511.777 215.142 513 230C516.158 222.257 509.813 214.086 502.999 210.916C491.712 205.664 471.417 206.566 466.148 220C453.751 251.611 513.77 237.319 514.852 263C515.585 280.41 490.169 283.946 478 279.441C467.98 275.731 465.326 267.417 463 258z"/>
<path style="fill:#63615e; stroke:none;" d="M494 208L494 209L497 209L494 208z"/>
<path style="fill:#aaa9a9; stroke:none;" d="M497.667 208.333L498.333 208.667L497.667 208.333M790 208L791 209L790 208z"/>
<path style="fill:#63615e; stroke:none;" d="M152 209L152 211L154 209L152 209z"/>
<path style="fill:#aaa9a9; stroke:none;" d="M154 209L155 210L154 209M204 209L205 210L204 209z"/>
<path style="fill:#63615e; stroke:none;" d="M205 209L206 210L205 209z"/>
<path style="fill:#aaa9a9; stroke:none;" d="M206.333 209.667L206.667 210.333L206.333 209.667M216 209L217 210L216 209z"/>
<path style="fill:#63615e; stroke:none;" d="M217 209L218 210L217 209z"/>
<path style="fill:#aaa9a9; stroke:none;" d="M218 209L219 229L220 229L218 209M237 209L238 210L237 209z"/>
<path style="fill:#63615e; stroke:none;" d="M238.667 209.333L239.333 209.667L238.667 209.333M246 209L246 210L250 210L246 209M257 209L258 210L257 209z"/>
<path style="fill:#aaa9a9; stroke:none;" d="M258.667 209.333L259.333 209.667L258.667 209.333M292 209L293 210L292 209z"/>
<path style="fill:#63615e; stroke:none;" d="M293 209C290.719 216.717 292 225.982 292 234C292 248.757 288.819 267.854 293 282L294 282C298.183 267.849 295 248.764 295 234L294 234L294 281L293 281L293 210L294 210C294 215.548 292.063 224.44 297 228L298 225L298 224L295 225L293 209z"/>
<path style="fill:#aaa9a9; stroke:none;" d="M294 209L295 210L294 209M310 209L311 210L310 209z"/>
<path style="fill:#63615e; stroke:none;" d="M311.667 209.333L312.333 209.667L311.667 209.333M319 209L319 210L323 210L319 209z"/>
<path style="fill:#aaa9a9; stroke:none;" d="M345.667 209.333L346.333 209.667L345.667 209.333z"/>
<path style="fill:#63615e; stroke:none;" d="M347 209L348 210L347 209M355 209L355 210L358 210L355 209M365.667 209.333L366.333 209.667L365.667 209.333z"/>
<path style="fill:#aaa9a9; stroke:none;" d="M367 209L368 210L367 209M411 209L412 210L411 209z"/>
<path style="fill:#63615e; stroke:none;" d="M412.667 209.333L413.333 209.667L412.667 209.333M422 209L422 210L426 210L422 209M433.667 209.333L434.333 209.667L433.667 209.333z"/>
<path style="fill:#aaa9a9; stroke:none;" d="M435 209L436 210L435 209M476 209L477 210L476 209z"/>
<path style="fill:#63615e; stroke:none;" d="M477.667 209.333L478.333 209.667L477.667 209.333M487 209L487 210L491 210L487 209M499.667 209.333L500.333 209.667L499.667 209.333z"/>
<path style="fill:#aaa9a9; stroke:none;" d="M501 209L502 210L501 209M789 209L790 210L789 209M841 209L842 210L841 209z"/>
<path style="fill:#63615e; stroke:none;" d="M155 210L156 211L155 210z"/>
<path style="fill:#aaa9a9; stroke:none;" d="M203 210L204 211L203 210z"/>
<path style="fill:#63615e; stroke:none;" d="M216 210L216 298L217 298L217 237L216 210z"/>
<path style="fill:#aaa9a9; stroke:none;" d="M234.667 210.333L235.333 210.667L234.667 210.333z"/>
<path style="fill:#63615e; stroke:none;" d="M241.667 210.333L242.333 210.667L241.667 210.333z"/>
<path style="fill:#aaa9a9; stroke:none;" d="M243 210L243 211L254 211L243 210z"/>
<path style="fill:#63615e; stroke:none;" d="M254.667 210.333L255.333 210.667L254.667 210.333M260 210L261 211L260 210z"/>
<path style="fill:#aaa9a9; stroke:none;" d="M261 210L262 211L261 210z"/>
<path style="fill:#0d0d0d; stroke:none;" d="M293 210L293 281L294 281L294.039 239L293 210z"/>
<path style="fill:#aaa9a9; stroke:none;" d="M308 210L309 211L308 210z"/>
<path style="fill:#63615e; stroke:none;" d="M309 210L310 211L309 210M314 210L315 211L314 210z"/>
<path style="fill:#aaa9a9; stroke:none;" d="M315 210L315 211L320 211L315 210M343 210L344 211L343 210z"/>
<path style="fill:#63615e; stroke:none;" d="M344 210L345 211L344 210M349.667 210.333L350.333 210.667L349.667 210.333z"/>
<path style="fill:#aaa9a9; stroke:none;" d="M351 210L351 211L356 211L351 210z"/>
<path style="fill:#ffffff; stroke:none;" d="M328 243L385 243C384.86 236.218 383.563 228.815 379.867 223C362.67 195.947 328.074 216.098 328 243z"/>
<path style="fill:#aaa9a9; stroke:none;" d="M357 210L357 211L362 211L357 210z"/>
<path style="fill:#63615e; stroke:none;" d="M362.667 210.333L363.333 210.667L362.667 210.333M368 210L369 211L368 210z"/>
<path style="fill:#aaa9a9; stroke:none;" d="M369 210L370 211L369 210M408 210L409 211L408 210z"/>
<path style="fill:#63615e; stroke:none;" d="M409 210L410 211L409 210M414.667 210.333L415.333 210.667L414.667 210.333z"/>
<path style="fill:#aaa9a9; stroke:none;" d="M416 210L416 211L429 211L416 210z"/>
<path style="fill:#63615e; stroke:none;" d="M429 210L429 211L432 211L429 210M437 210L438 211L437 210z"/>
<path style="fill:#aaa9a9; stroke:none;" d="M438 210L439 211L438 210M474 210L475 211L474 210z"/>
<path style="fill:#63615e; stroke:none;" d="M475 210L476 211L475 210M480.667 210.333L481.333 210.667L480.667 210.333z"/>
<path style="fill:#aaa9a9; stroke:none;" d="M482 210L482 211L496 211L482 210z"/>
<path style="fill:#63615e; stroke:none;" d="M496.667 210.333L497.333 210.667L496.667 210.333M502 210L503 211L502 210z"/>
<path style="fill:#aaa9a9; stroke:none;" d="M503 210L504 211L503 210z"/>
<path style="fill:#63615e; stroke:none;" d="M153 211L155 213L153 211z"/>
<path style="fill:#aaa9a9; stroke:none;" d="M156 211L158 213L156 211z"/>
<path style="fill:#63615e; stroke:none;" d="M205 211L206 212L205 211z"/>
<path style="fill:#aaa9a9; stroke:none;" d="M233 211L234 212L233 211z"/>
<path style="fill:#63615e; stroke:none;" d="M238 211L239 212L238 211z"/>
<path style="fill:#aaa9a9; stroke:none;" d="M239.667 211.333L240.333 211.667L239.667 211.333z"/>
<path style="fill:#ffffff; stroke:none;" d="M241 211.519C204.82 219.368 214.295 288.412 255 279.61C289.873 272.069 280.744 202.896 241 211.519z"/>
<path style="fill:#aaa9a9; stroke:none;" d="M256.667 211.333L257.333 211.667L256.667 211.333z"/>
<path style="fill:#63615e; stroke:none;" d="M258 211L259 212L258 211M262 211L263 212L262 211z"/>
<path style="fill:#aaa9a9; stroke:none;" d="M263 211L264 212L263 211M306 211L307 212L306 211z"/>
<path style="fill:#63615e; stroke:none;" d="M307 211L308 212L307 211M311 211L312 212L311 211z"/>
<path style="fill:#aaa9a9; stroke:none;" d="M312.667 211.333L313.333 211.667L312.667 211.333M341 211L342 212L341 211z"/>
<path style="fill:#63615e; stroke:none;" d="M342 211L343 212L342 211M346 211L347 212L346 211z"/>
<path style="fill:#aaa9a9; stroke:none;" d="M347.667 211.333L348.333 211.667L347.667 211.333M364.667 211.333L365.333 211.667L364.667 211.333z"/>
<path style="fill:#63615e; stroke:none;" d="M366 211L367 212L366 211z"/>
<path style="fill:#aaa9a9; stroke:none;" d="M371 211L372 212L371 211M407 211L408 212L407 211z"/>
<path style="fill:#63615e; stroke:none;" d="M411.667 211.333L412.333 211.667L411.667 211.333z"/>
<path style="fill:#aaa9a9; stroke:none;" d="M413 211L414 212L413 211M432.667 211.333L433.333 211.667L432.667 211.333z"/>
<path style="fill:#63615e; stroke:none;" d="M434 211L435 212L434 211M439 211L440 212L439 211z"/>
<path style="fill:#aaa9a9; stroke:none;" d="M472 211L473 212L472 211z"/>
<path style="fill:#63615e; stroke:none;" d="M473 211L474 212L473 211M477 211L478 212L477 211z"/>
<path style="fill:#aaa9a9; stroke:none;" d="M478.667 211.333L479.333 211.667L478.667 211.333M498 211L499 212L498 211z"/>
<path style="fill:#63615e; stroke:none;" d="M499.667 211.333L500.333 211.667L499.667 211.333M504 211L505 212L504 211z"/>
<path style="fill:#aaa9a9; stroke:none;" d="M505 211L506 212L505 211M153 212L154 213L153 212z"/>
<path style="fill:#63615e; stroke:none;" d="M156 212L157 213L156 212M202 212L203 213L202 212M204 212L203 214L204 212z"/>
<path style="fill:#aaa9a9; stroke:none;" d="M231 212L232 213L231 212z"/>
<path style="fill:#63615e; stroke:none;" d="M232 212L233 213L232 212M235 212L236 213L235 212z"/>
<path style="fill:#aaa9a9; stroke:none;" d="M236.667 212.333L237.333 212.667L236.667 212.333M259 212L260 213L259 212z"/>
<path style="fill:#63615e; stroke:none;" d="M260 212L261 213L260 212z"/>
<path style="fill:#aaa9a9; stroke:none;" d="M264 212L265 213L264 212M304 212L303 214L304 212z"/>
<path style="fill:#63615e; stroke:none;" d="M305 212L306 213L305 212M307 214L310 213L307 214z"/>
<path style="fill:#aaa9a9; stroke:none;" d="M310 212L311 213L310 212M339 212L338 214L339 212z"/>
<path style="fill:#63615e; stroke:none;" d="M340 212L341 213L340 212M340 214L340 215L345 213L340 214z"/>
<path style="fill:#aaa9a9; stroke:none;" d="M345 212L346 213L345 212M368 212L370 214L368 212z"/>
<path style="fill:#63615e; stroke:none;" d="M369 212L370 213L369 212M372 212L373 213L372 212z"/>
<path style="fill:#aaa9a9; stroke:none;" d="M373 212L374 213L373 212M405 212L404 214L405 212z"/>
<path style="fill:#63615e; stroke:none;" d="M406 212L407 213L406 212M409 212L410 213L409 212z"/>
<path style="fill:#aaa9a9; stroke:none;" d="M410 212L411 213L410 212M436 212L437 213L436 212z"/>
<path style="fill:#63615e; stroke:none;" d="M437 212L438 213L437 212M440 212L441 213L440 212z"/>
<path style="fill:#aaa9a9; stroke:none;" d="M441 212L442 213L441 212z"/>
<path style="fill:#63615e; stroke:none;" d="M471 212L472 213L471 212M473 214L476 213L473 214z"/>
<path style="fill:#aaa9a9; stroke:none;" d="M476 212L477 213L476 212M501 212L502 213L501 212z"/>
<path style="fill:#63615e; stroke:none;" d="M502 212L503 213L502 212M506 212L509 215L506 212z"/>
<path style="fill:#aaa9a9; stroke:none;" d="M507 212L508 213L507 212z"/>
<path style="fill:#63615e; stroke:none;" d="M787 212L788 213L787 212M843 212L844 213L843 212z"/>
<path style="fill:#aaa9a9; stroke:none;" d="M154 213L155 214L154 213z"/>
<path style="fill:#63615e; stroke:none;" d="M157 213L158 214L157 213M201 213L202 214L201 213z"/>
<path style="fill:#aaa9a9; stroke:none;" d="M204 213L205 214L204 213M229 213L228 215L229 213z"/>
<path style="fill:#63615e; stroke:none;" d="M230 213L231 214L230 213M234 213L235 214L234 213z"/>
<path style="fill:#aaa9a9; stroke:none;" d="M261 213L262 214L261 213z"/>
<path style="fill:#63615e; stroke:none;" d="M262 213L263 214L262 213M265 213L266 214L265 213M304 213L305 214L304 213z"/>
<path style="fill:#aaa9a9; stroke:none;" d="M308 213L309 214L308 213z"/>
<path style="fill:#63615e; stroke:none;" d="M339 213L340 214L339 213z"/>
<path style="fill:#aaa9a9; stroke:none;" d="M343 213L344 214L343 213z"/>
<path style="fill:#63615e; stroke:none;" d="M370 213L370 214L373 215L370 213M374 213L375 214L374 213M405 213L406 214L405 213z"/>
<path style="fill:#aaa9a9; stroke:none;" d="M408 213L409 214L408 213z"/>
<path style="fill:#63615e; stroke:none;" d="M438 213L438 214L441 215L438 213z"/>
<path style="fill:#aaa9a9; stroke:none;" d="M442 213L443 214L442 213z"/>
<path style="fill:#63615e; stroke:none;" d="M470 213L471 214L470 213z"/>
<path style="fill:#aaa9a9; stroke:none;" d="M474 213L475 214L474 213M503 213L504 214L503 213z"/>
<path style="fill:#63615e; stroke:none;" d="M504 213L505 214L504 213z"/>
<path style="fill:#aaa9a9; stroke:none;" d="M508 213L509 214L508 213z"/>
<path style="fill:#63615e; stroke:none;" d="M786 213L787 214L786 213M844 213L845 214L844 213z"/>
<path style="fill:#aaa9a9; stroke:none;" d="M155 214L156 215L155 214M158 214L160 216L158 214M200 214L199 216L200 214M203 214L204 215L203 214z"/>
<path style="fill:#63615e; stroke:none;" d="M229 214L230 215L229 214M232 214L233 215L232 214z"/>
<path style="fill:#aaa9a9; stroke:none;" d="M233 214L234 215L233 214z"/>
<path style="fill:#63615e; stroke:none;" d="M263 214L264 215L263 214M266 214L268 216L266 214z"/>
<path style="fill:#aaa9a9; stroke:none;" d="M267 214L268 215L267 214M302 214L303 215L302 214z"/>
<path style="fill:#63615e; stroke:none;" d="M305 214L304 216L305 214z"/>
<path style="fill:#aaa9a9; stroke:none;" d="M306 214L307 215L306 214M337 214L338 215L337 214M341 214L342 215L341 214M371 214L372 215L371 214z"/>
<path style="fill:#63615e; stroke:none;" d="M375 214L379 218L375 214z"/>
<path style="fill:#aaa9a9; stroke:none;" d="M376 214L377 215L376 214M403 214L404 215L403 214z"/>
<path style="fill:#63615e; stroke:none;" d="M406 214L407 215L406 214z"/>
<path style="fill:#aaa9a9; stroke:none;" d="M407 214L408 215L407 214M439 214L440 215L439 214z"/>
<path style="fill:#63615e; stroke:none;" d="M443 214L446 218L443 214z"/>
<path style="fill:#aaa9a9; stroke:none;" d="M468 214L469 215L468 214z"/>
<path style="fill:#63615e; stroke:none;" d="M469 214L470 215L469 214M471 214L470 216L471 214z"/>
<path style="fill:#aaa9a9; stroke:none;" d="M472 214L473 215L472 214z"/>
<path style="fill:#63615e; stroke:none;" d="M505 214L506 215L505 214z"/>
<path style="fill:#aaa9a9; stroke:none;" d="M509 214L510 215L509 214M845 214L846 215L845 214z"/>
<path style="fill:#63615e; stroke:none;" d="M156 215L157 216L156 215M158 215L159 216L158 215M200 215L201 216L200 215M202 215L203 216L202 215z"/>
<path style="fill:#aaa9a9; stroke:none;" d="M227 215L225 218L227 215M231 215L232 216L231 215M264 215L269 220L264 215z"/>
<path style="fill:#63615e; stroke:none;" d="M265 215L266 216L265 215z"/>
<path style="fill:#aaa9a9; stroke:none;" d="M301 215L299 218L301 215M305 215L306 216L305 215z"/>
<path style="fill:#63615e; stroke:none;" d="M336 215L337 216L336 215M339 215L340 216L339 215z"/>
<path style="fill:#aaa9a9; stroke:none;" d="M373 215L376 218L373 215z"/>
<path style="fill:#63615e; stroke:none;" d="M374 215L375 216L374 215z"/>
<path style="fill:#aaa9a9; stroke:none;" d="M377 215L378 216L377 215M402 215L401 217L402 215z"/>
<path style="fill:#63615e; stroke:none;" d="M405 215L406 216L405 215M441 215L443 217L441 215M468 215L469 216L468 215z"/>
<path style="fill:#aaa9a9; stroke:none;" d="M471 215L472 216L471 215M506 215L508 217L506 215z"/>
<path style="fill:#63615e; stroke:none;" d="M507 215L508 216L507 215z"/>
<path style="fill:#aaa9a9; stroke:none;" d="M510 215L511 216L510 215z"/>
<path style="fill:#63615e; stroke:none;" d="M785 215L786 216L785 215M157 216L158 217L157 216M159 216L160 217L159 216M199 216L200 217L199 216M201 216L202 217L201 216M227 216L228 217L227 216M229 216L228 218L229 216z"/>
<path style="fill:#aaa9a9; stroke:none;" d="M230 216L231 217L230 216z"/>
<path style="fill:#63615e; stroke:none;" d="M266 216L267 217L266 216M268 216L270 218L268 216z"/>
<path style="fill:#aaa9a9; stroke:none;" d="M269 216L270 217L269 216z"/>
<path style="fill:#63615e; stroke:none;" d="M301 216L302 217L301 216M303 216L304 217L303 216z"/>
<path style="fill:#aaa9a9; stroke:none;" d="M335 216L336 217L335 216z"/>
<path style="fill:#63615e; stroke:none;" d="M338 216L339 217L338 216M375 216L376 217L375 216z"/>
<path style="fill:#aaa9a9; stroke:none;" d="M378 216L379 217L378 216z"/>
<path style="fill:#63615e; stroke:none;" d="M402 216L403 217L402 216M404 216L403 218L404 216z"/>
<path style="fill:#aaa9a9; stroke:none;" d="M441 216L442 217L441 216M445 216L446 217L445 216z"/>
<path style="fill:#63615e; stroke:none;" d="M467 216L468 217L467 216z"/>
<path style="fill:#aaa9a9; stroke:none;" d="M470 216L471 217L470 216z"/>
<path style="fill:#63615e; stroke:none;" d="M510 216L511 217L510 216M846 216L847 217L846 216z"/>
<path style="fill:#aaa9a9; stroke:none;" d="M157 217L158 218L157 217z"/>
<path style="fill:#63615e; stroke:none;" d="M160 217L161 218L160 217M198 217L199 218L198 217z"/>
<path style="fill:#aaa9a9; stroke:none;" d="M201 217L202 218L201 217z"/>
<path style="fill:#63615e; stroke:none;" d="M226 217L227 218L226 217z"/>
<path style="fill:#aaa9a9; stroke:none;" d="M229 217L230 218L229 217z"/>
<path style="fill:#63615e; stroke:none;" d="M267 217L268 218L267 217M300 217L301 218L300 217M302 217L301 219L302 217z"/>
<path style="fill:#aaa9a9; stroke:none;" d="M334 217L335 218L334 217M337 217L338 218L337 217z"/>
<path style="fill:#63615e; stroke:none;" d="M401 217L402 218L401 217z"/>
<path style="fill:#aaa9a9; stroke:none;" d="M404 217L405 218L404 217M442 217L443 218L442 217M446.333 217.667L446.667 218.333L446.333 217.667M466 217L467 218L466 217z"/>
<path style="fill:#63615e; stroke:none;" d="M469 217L470 218L469 217M508 217L510 219L508 217M511 217L512 218L511 217M784 217L785 218L784 217z"/>
<path style="fill:#aaa9a9; stroke:none;" d="M847 217L848 218L847 217M158 218L159 219L158 218M161 218L163 220L161 218M197 218L196 220L197 218M200 218L201 219L200 218z"/>
<path style="fill:#63615e; stroke:none;" d="M225 218L226 219L225 218z"/>
<path style="fill:#aaa9a9; stroke:none;" d="M228 218L229 219L228 218z"/>
<path style="fill:#63615e; stroke:none;" d="M268 218L269 219L268 218M270 218L271 219L270 218M299 218L300 219L299 218z"/>
<path style="fill:#aaa9a9; stroke:none;" d="M302 218L303 219L302 218M333 218L334 219L333 218z"/>
<path style="fill:#63615e; stroke:none;" d="M336 218L337 219L336 218z"/>
<path style="fill:#aaa9a9; stroke:none;" d="M376 218L377 219L376 218z"/>
<path style="fill:#63615e; stroke:none;" d="M379 218L380 219L379 218z"/>
<path style="fill:#aaa9a9; stroke:none;" d="M400 218L401 219L400 218M403 218L404 219L403 218M443 218L444 219L443 218z"/>
<path style="fill:#63615e; stroke:none;" d="M466 218L467 219L466 218M468 218L469 219L468 218z"/>
<path style="fill:#aaa9a9; stroke:none;" d="M508 218L509 219L508 218M512 218L513 219L512 218z"/>
<path style="fill:#63615e; stroke:none;" d="M846 218L847 219L846 218M159 219L160 220L159 219M161 219L162 220L161 219M197 219L198 220L197 219z"/>
<path style="fill:#aaa9a9; stroke:none;" d="M199 219L200 220L199 219z"/>
<path style="fill:#63615e; stroke:none;" d="M224 219L225 220L224 219z"/>
<path style="fill:#aaa9a9; stroke:none;" d="M227 219L228 220L227 219M271 219L272 220L271 219z"/>
<path style="fill:#63615e; stroke:none;" d="M298 219L297 222L298 219z"/>
<path style="fill:#aaa9a9; stroke:none;" d="M301 219L302 220L301 219M332 219L333 220L332 219z"/>
<path style="fill:#63615e; stroke:none;" d="M335 219L336 220L335 219z"/>
<path style="fill:#aaa9a9; stroke:none;" d="M377 219L378 220L377 219M380 219L381 220L380 219z"/>
<path style="fill:#63615e; stroke:none;" d="M400 219L401 220L400 219M402 219L403 220L402 219M444 219L445 220L444 219z"/>
<path style="fill:#aaa9a9; stroke:none;" d="M465 219L466 220L465 219M468 219L469 220L468 219M509 219L510 220L509 219z"/>
<path style="fill:#63615e; stroke:none;" d="M512 219L513 220L512 219M783.333 219.667L783.667 220.333L783.333 219.667M812 219L812 220L818 220L812 219M844 219L845 220L844 219M160 220L161 221L160 220M162 220L163 221L162 220M196 220L197 221L196 220M198 220L199 221L198 220z"/>
<path style="fill:#aaa9a9; stroke:none;" d="M223 220L222 222L223 220M226 220L227 221L226 220z"/>
<path style="fill:#63615e; stroke:none;" d="M269 220L270 221L269 220z"/>
<path style="fill:#aaa9a9; stroke:none;" d="M272 220L273 221L272 220M297 220L298 221L297 220M300 220L301 221L300 220z"/>
<path style="fill:#63615e; stroke:none;" d="M332 220L333 221L332 220M334 220L333 222L334 220z"/>
<path style="fill:#aaa9a9; stroke:none;" d="M378 220L379 221L378 220M381 220L382 221L381 220M399.333 220.667L399.667 221.333L399.333 220.667M402 220L403 221L402 220M444 220L445 221L444 220M447 220L448 221L447 220z"/>
<path style="fill:#63615e; stroke:none;" d="M465.333 220.667L465.667 221.333L465.333 220.667M467 220L468 221L467 220M510 220L511 223L512 223L510 220z"/>
<path style="fill:#aaa9a9; stroke:none;" d="M513.333 220.667L513.667 221.333L513.333 220.667z"/>
<path style="fill:#63615e; stroke:none;" d="M810 220L811 221L810 220M820 220L821 221L820 220M843 220L844 221L843 220z"/>
<path style="fill:#aaa9a9; stroke:none;" d="M160 221L161 222L160 221M163 221L164 222L163 221z"/>
<path style="fill:#63615e; stroke:none;" d="M195 221L196 222L195 221M197 221L198 222L197 221M223 221L224 222L223 221M225 221L226 222L225 221M270 221L271 222L270 221M272 221L273 222L272 221M299 221L298 223L299 221M331 221L332 222L331 221z"/>
<path style="fill:#aaa9a9; stroke:none;" d="M334 221L335 222L334 221z"/>
<path style="fill:#63615e; stroke:none;" d="M379 221L381 223L379 221M381 221L382 222L381 221M401.333 221.667L401.667 222.333L401.333 221.667M445 221L446 222L445 221M447 221L448 222L447 221z"/>
<path style="fill:#aaa9a9; stroke:none;" d="M467.333 221.667L467.667 222.333L467.333 221.667M510 221L511 222L510 221M808 221L809 222L808 221z"/>
<path style="fill:#63615e; stroke:none;" d="M823 221L824 222L823 221M841 221L842 222L841 221z"/>
<path style="fill:#aaa9a9; stroke:none;" d="M161 222L162 223L161 222M164 222L166 224L164 222M194 222L195 223L194 222M197 222L198 223L197 222z"/>
<path style="fill:#63615e; stroke:none;" d="M222 222L223 223L222 222M224 222L225 223L224 222z"/>
<path style="fill:#aaa9a9; stroke:none;" d="M270 222L271 223L270 222M273 222L274 223L273 222M296.333 222.667L296.667 223.333L296.333 222.667M299 222L300 223L299 222M330 222L331 223L330 222M333 222L334 223L333 222M379 222L380 223L379 222z"/>
<path style="fill:#63615e; stroke:none;" d="M382.333 222.667L382.667 223.333L382.333 222.667M399.333 222.667L399.667 223.333L399.333 222.667z"/>
<path style="fill:#aaa9a9; stroke:none;" d="M445 222L446 223L445 222M448 222L449 223L448 222M464 222L464 225L465 225L464 222z"/>
<path style="fill:#63615e; stroke:none;" d="M513.333 222.667L513.667 223.333L513.333 222.667M824 222L825 223L824 222M840 222L841 223L840 222M162 223L163 224L162 223M164 223L165 224L164 223z"/>
<path style="fill:#aaa9a9; stroke:none;" d="M193 223L194 224L193 223M196 223L197 224L196 223M221 223L222 224L221 223M224 223L225 224L224 223z"/>
<path style="fill:#63615e; stroke:none;" d="M271 223L272 224L271 223M273 223L274 224L273 223z"/>
<path style="fill:#aaa9a9; stroke:none;" d="M298.333 223.667L298.667 224.333L298.333 223.667z"/>
<path style="fill:#63615e; stroke:none;" d="M330 223L331 224L330 223M332 223L331 226L332 226L332 223z"/>
<path style="fill:#aaa9a9; stroke:none;" d="M380 223L381 224L380 223M383 223L384 227L385 227L383 223M401 223L401 230L402 230L401 223z"/>
<path style="fill:#63615e; stroke:none;" d="M446.333 223.667L446.667 224.333L446.333 223.667M448 223L448 226L449 226L448 223M466 223L466 229L467 229L466 223z"/>
<path style="fill:#aaa9a9; stroke:none;" d="M511.333 223.667L511.667 224.333L511.333 223.667M514 223L514 226L515 226L514 223z"/>
<path style="fill:#63615e; stroke:none;" d="M782 223L783 224L782 223z"/>
<path style="fill:#aaa9a9; stroke:none;" d="M825 223L826 224L825 223z"/>
<path style="fill:#63615e; stroke:none;" d="M838 223L839 224L838 223z"/>
<path style="fill:#aaa9a9; stroke:none;" d="M162 224L163 225L162 224z"/>
<path style="fill:#63615e; stroke:none;" d="M165 224L166 225L165 224M193 224L194 225L193 224M195 224L193 227L195 224M221 224L222 225L221 224M223 224L222 227L223 227L223 224z"/>
<path style="fill:#aaa9a9; stroke:none;" d="M271 224L272 225L271 224M274 224L275 225L274 224M295 224L296 225L295 224M329 224L330 225L329 224M332 224L333 225L332 224z"/>
<path style="fill:#63615e; stroke:none;" d="M381 224L382 225L381 224z"/>
<path style="fill:#aaa9a9; stroke:none;" d="M398 224L398 228L399 228L398 224z"/>
<path style="fill:#63615e; stroke:none;" d="M805 224L806 225L805 224M826 224L827 225L826 224z"/>
<path style="fill:#aaa9a9; stroke:none;" d="M837 224L838 225L837 224M163 225L164 226L163 225z"/>
<path style="fill:#63615e; stroke:none;" d="M166 225L167 226L166 225M192 225L193 226L192 225z"/>
<path style="fill:#aaa9a9; stroke:none;" d="M195 225L196 226L195 225M223 225L224 226L223 225z"/>
<path style="fill:#63615e; stroke:none;" d="M272 225L273 226L272 225M274 225L275 226L274 225z"/>
<path style="fill:#0d0d0d; stroke:none;" d="M296.333 225.667L296.667 226.333L296.333 225.667z"/>
<path style="fill:#aaa9a9; stroke:none;" d="M297 225L298 226L297 225z"/>
<path style="fill:#63615e; stroke:none;" d="M329 225L330 226L329 225z"/>
<path style="fill:#aaa9a9; stroke:none;" d="M381 225L382 226L381 225z"/>
<path style="fill:#63615e; stroke:none;" d="M383 225L384 226L383 225z"/>
<path style="fill:#aaa9a9; stroke:none;" d="M446 225L446 230L447 230L446 225z"/>
<path style="fill:#63615e; stroke:none;" d="M464.333 225.667L464.667 226.333L464.333 225.667M512 225L512 228L513 228L512 225M827 225L828 226L827 225M835 225L836 226L835 225M82 226L83 227L82 226z"/>
<path style="fill:#aaa9a9; stroke:none;" d="M164 226L165 227L164 226M167 226L169 228L167 226M191 226L192 227L191 226M194 226L195 227L194 226z"/>
<path style="fill:#63615e; stroke:none;" d="M220 226L221 227L220 226z"/>
<path style="fill:#aaa9a9; stroke:none;" d="M272 226L273 227L272 226M275 226L276 227L275 226M328 226L329 227L328 226z"/>
<path style="fill:#63615e; stroke:none;" d="M330.333 226.667L330.667 227.333L330.333 226.667M382 226L383 227L382 226M514 226L514 230L515 230L514 226z"/>
<path style="fill:#aaa9a9; stroke:none;" d="M834 226L835 227L834 226M82 227L82 230L83 230L82 227M85 227L86 228L85 227M87 227L87 228L144 228L126 227L87 227z"/>
<path style="fill:#63615e; stroke:none;" d="M165 227L166 228L165 227M167 227L168 228L167 227z"/>
<path style="fill:#aaa9a9; stroke:none;" d="M190 227L189 229L190 227M193 227L194 228L193 227M222 227L223 228L222 227z"/>
<path style="fill:#63615e; stroke:none;" d="M273 227L274 228L273 227M275 227L276 228L275 227M328 227L329 228L328 227z"/>
<path style="fill:#aaa9a9; stroke:none;" d="M382.333 227.667L382.667 228.333L382.333 227.667z"/>
<path style="fill:#63615e; stroke:none;" d="M384 227L385 228L384 227z"/>
<path style="fill:#aaa9a9; stroke:none;" d="M449 227L449 230L450 230L449 227M464 227L464 231L465 231L464 227z"/>
<path style="fill:#63615e; stroke:none;" d="M804 227L805 228L804 227z"/>
<path style="fill:#aaa9a9; stroke:none;" d="M828 227L829 228L828 227M832 227L833 228L832 227M145.333 228.667L145.667 229.333L145.333 228.667z"/>
<path style="fill:#63615e; stroke:none;" d="M166 228L171 234L166 228M168 228L169 229L168 228M190 228L191 229L190 228M192 228L193 229L192 228M218 228L219 229L218 228M221 228L222 229L221 228z"/>
<path style="fill:#aaa9a9; stroke:none;" d="M273 228L274 229L273 228M276.333 228.667L276.667 229.333L276.333 228.667M296 228L297 229L296 228M327 228L328 229L327 228M385.333 228.667L385.667 229.333L385.333 228.667z"/>
<path style="fill:#63615e; stroke:none;" d="M399 228L399 231L400 231L399 228z"/>
<path style="fill:#aaa9a9; stroke:none;" d="M512.333 228.667L512.667 229.333L512.333 228.667M781 228L781 231L782 231L781 228M804 228L804 231L805 231L804 228z"/>
<path style="fill:#63615e; stroke:none;" d="M829.667 228.333L830.333 228.667L829.667 228.333z"/>
<path style="fill:#aaa9a9; stroke:none;" d="M166 229L167 230L166 229z"/>
<path style="fill:#63615e; stroke:none;" d="M169 229L170 230L169 229M189 229L190 230L189 229M191 229L190 232L191 232L191 229z"/>
<path style="fill:#aaa9a9; stroke:none;" d="M221 229L222 230L221 229z"/>
<path style="fill:#63615e; stroke:none;" d="M274.333 229.667L274.667 230.333L274.333 229.667M327.333 229.667L327.667 230.333L327.333 229.667M329 229L330 230L329 229M383.333 229.667L383.667 230.333L383.333 229.667z"/>
<path style="fill:#aaa9a9; stroke:none;" d="M467.333 229.667L467.667 230.333L467.333 229.667z"/>
<path style="fill:#63615e; stroke:none;" d="M82 230L82 233L83 233L82 230z"/>
<path style="fill:#aaa9a9; stroke:none;" d="M85 230L85 231L145 231L126 230L85 230M167 230L168 231L167 230z"/>
<path style="fill:#63615e; stroke:none;" d="M170 230L171 231L170 230z"/>
<path style="fill:#aaa9a9; stroke:none;" d="M188 230L189 231L188 230M191 230L192 231L191 230z"/>
<path style="fill:#63615e; stroke:none;" d="M220.333 230.667L220.667 231.333L220.333 230.667M276 230L277 231L276 230M295.333 230.667L295.667 231.333L295.333 230.667z"/>
<path style="fill:#aaa9a9; stroke:none;" d="M329 230L330 231L329 230z"/>
<path style="fill:#63615e; stroke:none;" d="M385 230L386 231L385 230M401.333 230.667L401.667 231.333L401.333 230.667z"/>
<path style="fill:#aaa9a9; stroke:none;" d="M447.667 230.333L448.333 230.667L447.667 230.333M513.667 230.333L514.333 230.667L513.667 230.333z"/>
<path style="fill:#63615e; stroke:none;" d="M84 231L84 279L85 279C85 265.474 89.2093 243.414 84 231z"/>
<path style="fill:#aaa9a9; stroke:none;" d="M171 231L172 232L171 231M187 231L186 233L187 231M274.333 231.667L274.667 232.333L274.333 231.667M277 231L277 234L278 234L277 231M326 231L327 232L326 231M383 231L384 232L383 231M386.333 231.667L386.667 232.333L386.333 231.667M399.333 231.667L399.667 232.333L399.333 231.667M402.333 231.667L402.667 232.333L402.333 231.667z"/>
<path style="fill:#63615e; stroke:none;" d="M465.333 231.667L465.667 232.333L465.333 231.667M467.333 231.667L467.667 232.333L467.333 231.667M804 231L805 232L804 231z"/>
<path style="fill:#aaa9a9; stroke:none;" d="M168 232L169 233L168 232z"/>
<path style="fill:#63615e; stroke:none;" d="M171 232L172 233L171 232M187 232L188 233L187 232M189 232L190 233L189 232z"/>
<path style="fill:#aaa9a9; stroke:none;" d="M220.333 232.667L220.667 233.333L220.333 232.667M295.333 232.667L295.667 233.333L295.333 232.667z"/>
<path style="fill:#63615e; stroke:none;" d="M326 232L327 233L326 232M328 232L329 233L328 232M384.333 232.667L384.667 233.333L384.333 232.667z"/>
<path style="fill:#aaa9a9; stroke:none;" d="M468.333 232.667L468.667 233.333L468.333 232.667M82 233L82 274L83 274C83 262.304 86.5108 243.75 82 233M169 233L170 234L169 233M172 233L173 234L172 233z"/>
<path style="fill:#63615e; stroke:none;" d="M186 233L187 234L186 233M188 233L189 234L188 233M275.333 233.667L275.667 234.333L275.333 233.667z"/>
<path style="fill:#aaa9a9; stroke:none;" d="M328.333 233.667L328.667 234.333L328.333 233.667z"/>
<path style="fill:#63615e; stroke:none;" d="M386 233L387 234L386 233M400 233L401 234L400 233M402 233L403 234L402 233z"/>
<path style="fill:#aaa9a9; stroke:none;" d="M465 233L466 234L465 233M170 234L171 235L170 234M173 234L174 235L173 234z"/>
<path style="fill:#63615e; stroke:none;" d="M185 234L186 235L185 234z"/>
<path style="fill:#aaa9a9; stroke:none;" d="M188 234L189 235L188 234z"/>
<path style="fill:#63615e; stroke:none;" d="M219.333 234.667L219.667 235.333L219.333 234.667M277 234L278 235L277 234z"/>
<path style="fill:#aaa9a9; stroke:none;" d="M325.333 234.667L325.667 235.333L325.333 234.667M384 234L384 237L385 237L384 234M400 234L401 235L400 234z"/>
<path style="fill:#63615e; stroke:none;" d="M403 234L404 235L403 234M466 234L469 237L466 234z"/>
<path style="fill:#aaa9a9; stroke:none;" d="M469 234L472 237L469 234z"/>
<path style="fill:#63615e; stroke:none;" d="M805 234L806 235L805 234M171 235L172 236L171 235M173 235L174 236L173 235z"/>
<path style="fill:#aaa9a9; stroke:none;" d="M184 235L183 237L184 235M187 235L188 236L187 235M275.333 235.667L275.667 236.333L275.333 235.667M278 235L278 238L279 238L278 235z"/>
<path style="fill:#63615e; stroke:none;" d="M327 235L327 238L328 238L327 235M401 235L403 237L401 235M404 235L405 236L404 235z"/>
<path style="fill:#aaa9a9; stroke:none;" d="M466 235L467 236L466 235z"/>
<path style="fill:#63615e; stroke:none;" d="M469 235L470 236L469 235z"/>
<path style="fill:#aaa9a9; stroke:none;" d="M806 235L807 236L806 235z"/>
<path style="fill:#63615e; stroke:none;" d="M172 236L174 238L172 236M174 236L175 237L174 236M184 236L185 237L184 236M186 236L187 237L186 236z"/>
<path style="fill:#aaa9a9; stroke:none;" d="M219.333 236.667L219.667 237.333L219.333 236.667z"/>
<path style="fill:#63615e; stroke:none;" d="M325 236L325 240L326 240L325 236z"/>
<path style="fill:#aaa9a9; stroke:none;" d="M387 236L387 239L388 239L387 236M401 236L402 237L401 236z"/>
<path style="fill:#63615e; stroke:none;" d="M405 236L406 237L405 236z"/>
<path style="fill:#aaa9a9; stroke:none;" d="M467 236L468 237L467 236z"/>
<path style="fill:#63615e; stroke:none;" d="M470 236L471 237L470 236M782 236L783 237L782 236z"/>
<path style="fill:#aaa9a9; stroke:none;" d="M807 236L808 237L807 236M172 237L173 238L172 237M175 237L178 240L175 237z"/>
<path style="fill:#63615e; stroke:none;" d="M183 237L184 238L183 237M185 237L184 239L185 237M385 237L385 243C366.384 243 344.119 246.314 326 242L326 243C343.489 248.169 367.733 244 386 244L385 237M403 237L404 238L403 237M406 237L407 238L406 237z"/>
<path style="fill:#aaa9a9; stroke:none;" d="M407 237L408 238L407 237M468 237L469 238L468 237z"/>
<path style="fill:#63615e; stroke:none;" d="M472 237L473 238L472 237z"/>
<path style="fill:#aaa9a9; stroke:none;" d="M782 237L783 238L782 237M808 237L809 238L808 237M173 238L174 239L173 238z"/>
<path style="fill:#63615e; stroke:none;" d="M175 238L176 239L175 238M182 238L183 239L182 238z"/>
<path style="fill:#aaa9a9; stroke:none;" d="M185 238L186 239L185 238z"/>
<path style="fill:#63615e; stroke:none;" d="M276 238L276 242L277 242L276 238M278 238L278 245L279 245L278 238z"/>
<path style="fill:#aaa9a9; stroke:none;" d="M327 238L327 243L328 243L327 238z"/>
<path style="fill:#63615e; stroke:none;" d="M404 238L405 239L404 238M408 238L409 239L408 238z"/>
<path style="fill:#aaa9a9; stroke:none;" d="M409 238L410 239L409 238M469 238L471 240L469 238z"/>
<path style="fill:#63615e; stroke:none;" d="M470 238L471 239L470 238M473 238L474 239L473 238z"/>
<path style="fill:#aaa9a9; stroke:none;" d="M474.667 238.333L475.333 238.667L474.667 238.333z"/>
<path style="fill:#63615e; stroke:none;" d="M809 238L810 239L809 238M174 239L175 240L174 239M176 239L177 240L176 239z"/>
<path style="fill:#aaa9a9; stroke:none;" d="M181 239L182 240L181 239M184 239L185 240L184 239z"/>
<path style="fill:#63615e; stroke:none;" d="M218 239L218 245L219 245L218 239M387 239L387 245L341 245C335.878 245 327.944 243.143 326 249L327 249L327 246L374 246C379.242 246 390.46 247.546 387 239z"/>
<path style="fill:#aaa9a9; stroke:none;" d="M405 239L406 240L405 239z"/>
<path style="fill:#63615e; stroke:none;" d="M406 239L407 240L406 239M410 239L411 240L410 239z"/>
<path style="fill:#aaa9a9; stroke:none;" d="M411.667 239.333L412.333 239.667L411.667 239.333z"/>
<path style="fill:#63615e; stroke:none;" d="M471 239L472 240L471 239M476 239L477 240L476 239z"/>
<path style="fill:#aaa9a9; stroke:none;" d="M477 239L478 240L477 239z"/>
<path style="fill:#63615e; stroke:none;" d="M783.333 239.667L783.667 240.333L783.333 239.667M175 240L177 242L175 240M177 240L178 241L177 240z"/>
<path style="fill:#aaa9a9; stroke:none;" d="M180 240L178 241L178 242L180 240z"/>
<path style="fill:#63615e; stroke:none;" d="M183 240L184 241L183 240z"/>
<path style="fill:#aaa9a9; stroke:none;" d="M324 240L324 252L325 252L324 240M407 240L408 241L407 240z"/>
<path style="fill:#63615e; stroke:none;" d="M408 240L408 241L412 242L412 241L408 240M413 240L414 241L413 240z"/>
<path style="fill:#aaa9a9; stroke:none;" d="M414.667 240.333L415.333 240.667L414.667 240.333M472 240L473 241L472 240z"/>
<path style="fill:#63615e; stroke:none;" d="M473.667 240.333L474.333 240.667L473.667 240.333M478.667 240.333L479.333 240.667L478.667 240.333z"/>
<path style="fill:#aaa9a9; stroke:none;" d="M480.667 240.333L481.333 240.667L480.667 240.333z"/>
<path style="fill:#63615e; stroke:none;" d="M812 240L813 241L812 240z"/>
<path style="fill:#aaa9a9; stroke:none;" d="M813 240L814 241L813 240M175 241L176 242L175 241z"/>
<path style="fill:#63615e; stroke:none;" d="M180 241L181 242L180 241M182 241L181 243L182 241z"/>
<path style="fill:#aaa9a9; stroke:none;" d="M409 241L410 242L409 241z"/>
<path style="fill:#63615e; stroke:none;" d="M416 241L416 242L419 242L416 241z"/>
<path style="fill:#aaa9a9; stroke:none;" d="M419 241L420 242L419 241M475 241L476 242L475 241z"/>
<path style="fill:#63615e; stroke:none;" d="M476 241L477 242L476 241M482.667 241.333L483.333 241.667L482.667 241.333z"/>
<path style="fill:#aaa9a9; stroke:none;" d="M484.667 241.333L485.333 241.667L484.667 241.333M783 241L784 242L783 241M815 241L816 242L815 241M176 242L177 243L176 242M182 242L183 243L182 242M276 242L276 249L277 249L276 242M412 242L413 243L412 242z"/>
<path style="fill:#63615e; stroke:none;" d="M413.667 242.333L414.333 242.667L413.667 242.333M420.667 242.333L421.333 242.667L420.667 242.333z"/>
<path style="fill:#aaa9a9; stroke:none;" d="M422.667 242.333L423.333 242.667L422.667 242.333M477.667 242.333L478.333 242.667L477.667 242.333z"/>
<path style="fill:#63615e; stroke:none;" d="M479.667 242.333L480.333 242.667L479.667 242.333M485.667 242.333L486.333 242.667L485.667 242.333z"/>
<path style="fill:#aaa9a9; stroke:none;" d="M487.667 242.333L488.333 242.667L487.667 242.333z"/>
<path style="fill:#63615e; stroke:none;" d="M817 242L818 243L817 242z"/>
<path style="fill:#aaa9a9; stroke:none;" d="M177 243L176 246L177 243M181.333 243.667L181.667 244.333L181.333 243.667M415.667 243.333L416.333 243.667L415.667 243.333z"/>
<path style="fill:#63615e; stroke:none;" d="M417.667 243.333L418.333 243.667L417.667 243.333M425 243L426 244L425 243z"/>
<path style="fill:#aaa9a9; stroke:none;" d="M426 243L427 244L426 243M481.667 243.333L482.333 243.667L481.667 243.333z"/>
<path style="fill:#63615e; stroke:none;" d="M483 243L484 244L483 243M490 243L491 244L490 243z"/>
<path style="fill:#aaa9a9; stroke:none;" d="M491.667 243.333L492.333 243.667L491.667 243.333z"/>
<path style="fill:#63615e; stroke:none;" d="M784 243L785 244L784 243M819 243L820 244L819 243z"/>
<path style="fill:#aaa9a9; stroke:none;" d="M419.667 244.333L420.333 244.667L419.667 244.333z"/>
<path style="fill:#63615e; stroke:none;" d="M421.667 244.333L422.333 244.667L421.667 244.333M428 244L429 245L428 244z"/>
<path style="fill:#aaa9a9; stroke:none;" d="M429.667 244.333L430.333 244.667L429.667 244.333M484.667 244.333L485.333 244.667L484.667 244.333z"/>
<path style="fill:#63615e; stroke:none;" d="M486.667 244.333L487.333 244.667L486.667 244.333M494 244L495 245L494 244z"/>
<path style="fill:#aaa9a9; stroke:none;" d="M495.667 244.333L496.333 244.667L495.667 244.333z"/>
<path style="fill:#63615e; stroke:none;" d="M821 244L822 245L821 244z"/>
<path style="fill:#aaa9a9; stroke:none;" d="M822 244L823 245L822 244z"/>
<path style="fill:#63615e; stroke:none;" d="M177 245L178 246L177 245M181 245L182 246L181 245z"/>
<path style="fill:#aaa9a9; stroke:none;" d="M218 245L219 246L218 245M387 245L388 246L387 245M423.667 245.333L424.333 245.667L423.667 245.333z"/>
<path style="fill:#63615e; stroke:none;" d="M425.667 245.333L426.333 245.667L425.667 245.333M431 245L431 246L434 246L431 245z"/>
<path style="fill:#aaa9a9; stroke:none;" d="M434 245L435 246L434 245M489 245L490 246L489 245z"/>
<path style="fill:#63615e; stroke:none;" d="M490 245L490 246L493 246L490 245M497.667 245.333L498.333 245.667L497.667 245.333z"/>
<path style="fill:#aaa9a9; stroke:none;" d="M499.667 245.333L500.333 245.667L499.667 245.333z"/>
<path style="fill:#63615e; stroke:none;" d="M785 245L786 246L785 245z"/>
<path style="fill:#aaa9a9; stroke:none;" d="M824 245L825 246L824 245z"/>
<path style="fill:#63615e; stroke:none;" d="M176 246L177 247L176 246M178 246L177 248L178 246z"/>
<path style="fill:#aaa9a9; stroke:none;" d="M179 246L181 248L179 246z"/>
<path style="fill:#63615e; stroke:none;" d="M180 246L181 247L180 246z"/>
<path style="fill:#aaa9a9; stroke:none;" d="M182 246L183 247L182 246z"/>
<path style="fill:#63615e; stroke:none;" d="M218 246L218 252L219 252L218 246M278 246L278 253L279 253L278 246z"/>
<path style="fill:#aaa9a9; stroke:none;" d="M327 246L328 247L327 246M427 246L428 247L427 246z"/>
<path style="fill:#63615e; stroke:none;" d="M428 246L428 247L431 247L428 246M435.667 246.333L436.333 246.667L435.667 246.333z"/>
<path style="fill:#aaa9a9; stroke:none;" d="M437 246L438 247L437 246M492.667 246.333L493.333 246.667L492.667 246.333z"/>
<path style="fill:#63615e; stroke:none;" d="M494 246L494 247L497 247L494 246M500.667 246.333L501.333 246.667L500.667 246.333z"/>
<path style="fill:#aaa9a9; stroke:none;" d="M502.667 246.333L503.333 246.667L502.667 246.333z"/>
<path style="fill:#63615e; stroke:none;" d="M826 246L827 247L826 246M175 247L176 248L175 247z"/>
<path style="fill:#aaa9a9; stroke:none;" d="M178 247L179 248L178 247M183 247L185 249L183 247M431 247L432 248L431 247z"/>
<path style="fill:#63615e; stroke:none;" d="M432.667 247.333L433.333 247.667L432.667 247.333M438.667 247.333L439.333 247.667L438.667 247.333z"/>
<path style="fill:#aaa9a9; stroke:none;" d="M440 247L441 248L440 247M496.667 247.333L497.333 247.667L496.667 247.333z"/>
<path style="fill:#63615e; stroke:none;" d="M498.667 247.333L499.333 247.667L498.667 247.333M503.667 247.333L504.333 247.667L503.667 247.333z"/>
<path style="fill:#aaa9a9; stroke:none;" d="M505 247L506 248L505 247M786 247L787 248L786 247z"/>
<path style="fill:#63615e; stroke:none;" d="M828 247L829 248L828 247z"/>
<path style="fill:#aaa9a9; stroke:none;" d="M174 248L175 249L174 248M177 248L178 249L177 248z"/>
<path style="fill:#63615e; stroke:none;" d="M181 248L182 249L181 248M183 248L184 249L183 248z"/>
<path style="fill:#aaa9a9; stroke:none;" d="M434 248L435 249L434 248z"/>
<path style="fill:#63615e; stroke:none;" d="M435.667 248.333L436.333 248.667L435.667 248.333M441 248L442 249L441 248z"/>
<path style="fill:#aaa9a9; stroke:none;" d="M500 248L501 249L500 248z"/>
<path style="fill:#63615e; stroke:none;" d="M501.667 248.333L502.333 248.667L501.667 248.333M506 248L507 249L506 248z"/>
<path style="fill:#aaa9a9; stroke:none;" d="M507 248L508 249L507 248z"/>
<path style="fill:#63615e; stroke:none;" d="M787 248L788 249L787 248M830 248L831 249L830 248z"/>
<path style="fill:#aaa9a9; stroke:none;" d="M173 249L174 250L173 249M176 249L177 250L176 249z"/>
<path style="fill:#63615e; stroke:none;" d="M182 249L183 250L182 249M184 249L185 250L184 249M276 249L276 252L277 252L276 249z"/>
<path style="fill:#aaa9a9; stroke:none;" d="M327 249L327 254L328 254L327 249M437.667 249.333L438.333 249.667L437.667 249.333z"/>
<path style="fill:#63615e; stroke:none;" d="M439 249L440 250L439 249z"/>
<path style="fill:#aaa9a9; stroke:none;" d="M443 249L444 250L443 249M503 249L504 250L503 249z"/>
<path style="fill:#63615e; stroke:none;" d="M504 249L505 250L504 249M508 249L509 250L508 249z"/>
<path style="fill:#aaa9a9; stroke:none;" d="M509 249L510 250L509 249z"/>
<path style="fill:#63615e; stroke:none;" d="M832 249L833 250L832 249M173 250L174 251L173 250M175 250L173 253L175 250z"/>
<path style="fill:#aaa9a9; stroke:none;" d="M182 250L183 251L182 250z"/>
<path style="fill:#63615e; stroke:none;" d="M185 250L186 251L185 250M440 250L440 251L446 254L440 250M444 250L446 252L444 250z"/>
<path style="fill:#aaa9a9; stroke:none;" d="M445 250L446 251L445 250M505 250L506 251L505 250z"/>
<path style="fill:#63615e; stroke:none;" d="M506 250L507 251L506 250M510 250L511 251L510 250M834 250L835 251L834 250M172 251L173 252L172 251z"/>
<path style="fill:#aaa9a9; stroke:none;" d="M175 251L176 252L175 251M183 251L184 252L183 251M186 251L187 252L186 251z"/>
<path style="fill:#63615e; stroke:none;" d="M325 251L325 256L326 256L325 251z"/>
<path style="fill:#aaa9a9; stroke:none;" d="M441 251L442 252L441 251M446 251L447 252L446 251M507 251L509 253L507 251z"/>
<path style="fill:#63615e; stroke:none;" d="M508 251L509 252L508 251M511 251L513 253L511 251z"/>
<path style="fill:#aaa9a9; stroke:none;" d="M512 251L513 252L512 251M789 251L790 252L789 251M836 251L837 252L836 251M171 252L172 253L171 252M174 252L175 253L174 252z"/>
<path style="fill:#63615e; stroke:none;" d="M184 252L185 253L184 252z"/>
<path style="fill:#aaa9a9; stroke:none;" d="M187 252L189 254L187 252M443 252L444 253L443 252M447 252L449 254L447 252z"/>
<path style="fill:#63615e; stroke:none;" d="M509 252L510 253L509 252z"/>
<path style="fill:#aaa9a9; stroke:none;" d="M170 253L171 254L170 253M173 253L174 254L173 253z"/>
<path style="fill:#63615e; stroke:none;" d="M185 253L186 254L185 253M187 253L188 254L187 253z"/>
<path style="fill:#aaa9a9; stroke:none;" d="M219 253L219 256L220 256L219 253M275.333 253.667L275.667 254.333L275.333 253.667M278.333 253.667L278.667 254.333L278.333 253.667M444 253L445 254L444 253z"/>
<path style="fill:#63615e; stroke:none;" d="M447 253L448 254L447 253M510 253L511 254L510 253M513 253L514 254L513 253z"/>
<path style="fill:#aaa9a9; stroke:none;" d="M791 253L792 254L791 253z"/>
<path style="fill:#63615e; stroke:none;" d="M839 253L840 254L839 253M170 254L171 255L170 254M172 254L173 255L172 254M186 254L188 256L186 254M188 254L189 255L188 254M327 254L327 257L328 257L327 254z"/>
<path style="fill:#aaa9a9; stroke:none;" d="M445 254L446 255L445 254z"/>
<path style="fill:#63615e; stroke:none;" d="M448 254L449 255L448 254M511 254L512 255L511 254z"/>
<path style="fill:#aaa9a9; stroke:none;" d="M514 254L515 255L514 254z"/>
<path style="fill:#63615e; stroke:none;" d="M169 255L170 256L169 255M171 255L170 257L171 255z"/>
<path style="fill:#aaa9a9; stroke:none;" d="M186 255L187 256L186 255z"/>
<path style="fill:#63615e; stroke:none;" d="M189 255L190 256L189 255M275 255L275 258L276 258L275 255M277.333 255.667L277.667 256.333L277.333 255.667z"/>
<path style="fill:#aaa9a9; stroke:none;" d="M446 255L447 256L446 255z"/>
<path style="fill:#63615e; stroke:none;" d="M449 255L450 260L451 260L449 255M512 255L513 256L512 255z"/>
<path style="fill:#aaa9a9; stroke:none;" d="M515 255L516 256L515 255z"/>
<path style="fill:#63615e; stroke:none;" d="M794 255L795 256L794 255z"/>
<path style="fill:#aaa9a9; stroke:none;" d="M842 255L843 256L842 255z"/>
<path style="fill:#63615e; stroke:none;" d="M168 256L169 257L168 256z"/>
<path style="fill:#aaa9a9; stroke:none;" d="M171 256L172 257L171 256M187 256L188 257L187 256M190 256L192 258L190 256z"/>
<path style="fill:#63615e; stroke:none;" d="M219 256L219 259L220 259L219 256z"/>
<path style="fill:#aaa9a9; stroke:none;" d="M325.333 256.667L325.667 257.333L325.333 256.667M385.667 256.333L386.333 256.667L385.667 256.333z"/>
<path style="fill:#63615e; stroke:none;" d="M447 256L448 257L447 256z"/>
<path style="fill:#aaa9a9; stroke:none;" d="M450 256L451 257L450 256M512 256L513 257L512 256z"/>
<path style="fill:#63615e; stroke:none;" d="M515 256L516 257L515 256z"/>
<path style="fill:#aaa9a9; stroke:none;" d="M795 256L796 257L795 256z"/>
<path style="fill:#63615e; stroke:none;" d="M843 256L844 257L843 256z"/>
<path style="fill:#aaa9a9; stroke:none;" d="M167 257L168 258L167 257M170 257L171 258L170 257z"/>
<path style="fill:#63615e; stroke:none;" d="M188 257L189 258L188 257M190 257L191 258L190 257z"/>
<path style="fill:#aaa9a9; stroke:none;" d="M277.333 257.667L277.667 258.333L277.333 257.667M328.333 257.667L328.667 258.333L328.333 257.667z"/>
<path style="fill:#63615e; stroke:none;" d="M384.333 257.667L384.667 258.333L384.333 257.667M386.333 257.667L386.667 258.333L386.333 257.667M396 257L396 263L397 263L398 257L396 257z"/>
<path style="fill:#aaa9a9; stroke:none;" d="M398 257L398 261L399 261L398 257M447 257L448 258L447 257M461 257L461 262L462 262L461 257z"/>
<path style="fill:#63615e; stroke:none;" d="M462 257L463 260L464 260L464 257L462 257M513 257L514 258L513 257M844 257L845 258L844 257z"/>
<path style="fill:#aaa9a9; stroke:none;" d="M166 258L167 259L166 258z"/>
<path style="fill:#63615e; stroke:none;" d="M169 258L170 259L169 258M189 258L191 260L189 258M191 258L192 259L191 258z"/>
<path style="fill:#aaa9a9; stroke:none;" d="M274.333 258.667L274.667 259.333L274.333 258.667z"/>
<path style="fill:#63615e; stroke:none;" d="M326 258L326 261L327 261L326 258M448 258L449 259L448 258z"/>
<path style="fill:#aaa9a9; stroke:none;" d="M513 258L514 259L513 258M516.333 258.667L516.667 259.333L516.333 258.667M798 258L799 259L798 258z"/>
<path style="fill:#63615e; stroke:none;" d="M845 258L846 259L845 258M166 259L167 260L166 259M168 259L169 260L168 259z"/>
<path style="fill:#aaa9a9; stroke:none;" d="M189 259L190 260L189 259z"/>
<path style="fill:#63615e; stroke:none;" d="M192 259L193 260L192 259z"/>
<path style="fill:#aaa9a9; stroke:none;" d="M220.333 259.667L220.667 260.333L220.333 259.667z"/>
<path style="fill:#63615e; stroke:none;" d="M276 259L277 260L276 259M328 259L329 260L328 259z"/>
<path style="fill:#aaa9a9; stroke:none;" d="M383.333 259.667L383.667 260.333L383.333 259.667M386.333 259.667L386.667 260.333L386.333 259.667M448 259L448 262L449 262L448 259z"/>
<path style="fill:#63615e; stroke:none;" d="M514 259L514 268L515 268L514 259M800 259L801 260L800 259M846 259L847 260L846 259M165 260L166 261L165 260M167 260L168 261L167 260z"/>
<path style="fill:#aaa9a9; stroke:none;" d="M190 260L191 261L190 260M193 260L195 262L193 260z"/>
<path style="fill:#63615e; stroke:none;" d="M274 260L275 261L274 260z"/>
<path style="fill:#aaa9a9; stroke:none;" d="M276.333 260.667L276.667 261.333L276.333 260.667M451 260L451 266L452 266L451 260M464 260L464 264L465 264L464 260z"/>
<path style="fill:#63615e; stroke:none;" d="M516 260L516 266L517 266L516 260M802 260L803 261L802 260M847 260L848 261L847 260z"/>
<path style="fill:#aaa9a9; stroke:none;" d="M164 261L165 262L164 261M167 261L168 262L167 261z"/>
<path style="fill:#63615e; stroke:none;" d="M191 261L192 262L191 261M193 261L194 262L193 261M218 264L221 261L218 264z"/>
<path style="fill:#aaa9a9; stroke:none;" d="M273.333 261.667L273.667 262.333L273.333 261.667M326 261L327 262L326 261M329.333 261.667L329.667 262.333L329.333 261.667z"/>
<path style="fill:#63615e; stroke:none;" d="M383.333 261.667L383.667 262.333L383.333 261.667M385.333 261.667L385.667 262.333L385.333 261.667M398 261L398 265L399 265L398 261M804 261L805 262L804 261z"/>
<path style="fill:#aaa9a9; stroke:none;" d="M848 261L849 262L848 261M163 262L164 263L163 262M166 262L167 263L166 262z"/>
<path style="fill:#63615e; stroke:none;" d="M192 262L193 263L192 262M194 262L195 263L194 262z"/>
<path style="fill:#0d0d0d; stroke:none;" d="M220 262L221 266L222 266L220 262z"/>
<path style="fill:#aaa9a9; stroke:none;" d="M221.333 262.667L221.667 263.333L221.333 262.667z"/>
<path style="fill:#63615e; stroke:none;" d="M275 262L276 263L275 262M327.333 262.667L327.667 263.333L327.333 262.667M806 262L807 263L806 262M163 263L164 264L163 263M165 263L166 264L165 263M195 263L196 264L195 263z"/>
<path style="fill:#aaa9a9; stroke:none;" d="M219 263L220 264L219 263z"/>
<path style="fill:#63615e; stroke:none;" d="M273 263L274 264L273 263z"/>
<path style="fill:#aaa9a9; stroke:none;" d="M275.333 263.667L275.667 264.333L275.333 263.667z"/>
<path style="fill:#63615e; stroke:none;" d="M329 263L330 264L329 263z"/>
<path style="fill:#aaa9a9; stroke:none;" d="M382.333 263.667L382.667 264.333L382.333 263.667M385 263L386 264L385 263M396 263L396 266L397 266L396 263z"/>
<path style="fill:#63615e; stroke:none;" d="M449.333 263.667L449.667 264.333L449.333 263.667z"/>
<path style="fill:#aaa9a9; stroke:none;" d="M808 263L809 264L808 263z"/>
<path style="fill:#63615e; stroke:none;" d="M849 263L850 264L849 263M162 264L163 265L162 264M164 264L165 265L164 264z"/>
<path style="fill:#aaa9a9; stroke:none;" d="M193 264L194 265L193 264M196 264L199 267L196 264M218 264L218 298L219 298L218 264z"/>
<path style="fill:#63615e; stroke:none;" d="M220 264L221 265L220 264z"/>
<path style="fill:#aaa9a9; stroke:none;" d="M272 264L273 265L272 264z"/>
<path style="fill:#63615e; stroke:none;" d="M274.333 264.667L274.667 265.333L274.333 264.667z"/>
<path style="fill:#aaa9a9; stroke:none;" d="M327 264L328 265L327 264M330 264L331 265L330 264z"/>
<path style="fill:#63615e; stroke:none;" d="M384 264L385 265L384 264z"/>
<path style="fill:#aaa9a9; stroke:none;" d="M399.333 264.667L399.667 265.333L399.333 264.667z"/>
<path style="fill:#63615e; stroke:none;" d="M462.333 264.667L462.667 265.333L462.333 264.667M464.333 264.667L464.667 265.333L464.333 264.667z"/>
<path style="fill:#aaa9a9; stroke:none;" d="M810 264L811 265L810 264M161 265L162 266L161 265M164 265L165 266L164 265M194 265L195 266L194 265z"/>
<path style="fill:#63615e; stroke:none;" d="M196 265L197 266L196 265z"/>
<path style="fill:#aaa9a9; stroke:none;" d="M220 265L221 266L220 265M222 265L224 267L222 265z"/>
<path style="fill:#63615e; stroke:none;" d="M272 265L273 266L272 265M328 265L329 266L328 265M330 265L331 266L330 265M382 265L383 266L382 265z"/>
<path style="fill:#aaa9a9; stroke:none;" d="M384.333 265.667L384.667 266.333L384.333 265.667M448 265L448 268L449 268L448 265z"/>
<path style="fill:#63615e; stroke:none;" d="M813 265L814 266L813 265z"/>
<path style="fill:#aaa9a9; stroke:none;" d="M160 266L159 268L160 266M163 266L164 267L163 266z"/>
<path style="fill:#63615e; stroke:none;" d="M195 266L196 267L195 266M197 266L198 267L197 266M221 266L221 267L225 270L221 266z"/>
<path style="fill:#aaa9a9; stroke:none;" d="M271 266L272 267L271 266M274 266L275 267L274 266M328 266L329 267L328 266M331 266L332 267L331 266M381 266L382 267L381 266z"/>
<path style="fill:#63615e; stroke:none;" d="M397 266L398 267L397 266M399.333 266.667L399.667 267.333L399.333 266.667M450 266L450 269L451 269L450 266z"/>
<path style="fill:#aaa9a9; stroke:none;" d="M462.333 266.667L462.667 267.333L462.333 266.667M465 266L466 267L465 266M516.333 266.667L516.667 267.333L516.333 266.667z"/>
<path style="fill:#63615e; stroke:none;" d="M815 266L816 267L815 266z"/>
<path style="fill:#aaa9a9; stroke:none;" d="M851 266L852 267L851 266z"/>
<path style="fill:#63615e; stroke:none;" d="M160 267L161 268L160 267M162 267L163 268L162 267M196 267L197 268L196 267M198 267L199 268L198 267z"/>
<path style="fill:#aaa9a9; stroke:none;" d="M221 267L222 268L221 267z"/>
<path style="fill:#0d0d0d; stroke:none;" d="M222 267L223 268L222 267z"/>
<path style="fill:#63615e; stroke:none;" d="M271 267L272 268L271 267M273 267L272 269L273 267M329 267L330 268L329 267M331 267L332 268L331 267M381 267L382 268L381 267M383 267L382 270L383 270L383 267z"/>
<path style="fill:#aaa9a9; stroke:none;" d="M397.333 267.667L397.667 268.333L397.333 267.667z"/>
<path style="fill:#63615e; stroke:none;" d="M465 267L466 268L465 267z"/>
<path style="fill:#aaa9a9; stroke:none;" d="M817 267L818 268L817 267z"/>
<path style="fill:#63615e; stroke:none;" d="M818 267L819 268L818 267M851 267L852 268L851 267M159 268L160 269L159 268M161 268L160 270L161 268z"/>
<path style="fill:#aaa9a9; stroke:none;" d="M196 268L197 269L196 268M199 268L200 269L199 268M224 268L225 269L224 268M270 268L269 270L270 268M273 268L274 269L273 268M329 268L330 269L329 268M332 268L333 269L332 268M380 268L381 269L380 268M383 268L384 269L383 268M400 268L401 269L400 268z"/>
<path style="fill:#63615e; stroke:none;" d="M448 268L449 269L448 268M463 268L464 269L463 268z"/>
<path style="fill:#aaa9a9; stroke:none;" d="M513 268L514 269L513 268M819 268L820 269L819 268z"/>
<path style="fill:#63615e; stroke:none;" d="M158 269L159 270L158 269z"/>
<path style="fill:#aaa9a9; stroke:none;" d="M161 269L162 270L161 269M197 269L198 270L197 269M200 269L201 270L200 269M222 269L223 270L222 269z"/>
<path style="fill:#63615e; stroke:none;" d="M270 269L271 270L270 269z"/>
<path style="fill:#aaa9a9; stroke:none;" d="M272 269L273 270L272 269z"/>
<path style="fill:#63615e; stroke:none;" d="M330 269L331 270L330 269M332 269L333 270L332 269z"/>
<path style="fill:#aaa9a9; stroke:none;" d="M379 269L380 270L379 269z"/>
<path style="fill:#63615e; stroke:none;" d="M398 269L399 270L398 269M400 269L401 270L400 269z"/>
<path style="fill:#aaa9a9; stroke:none;" d="M447 269L448 270L447 269M450 269L451 270L450 269M463 269L464 270L463 269M466 269L467 270L466 269z"/>
<path style="fill:#63615e; stroke:none;" d="M513 269L514 270L513 269M515 269L516 270L515 269M822 269L823 270L822 269M852.333 269.667L852.667 270.333L852.333 269.667z"/>
<path style="fill:#aaa9a9; stroke:none;" d="M157 270L158 271L157 270M160 270L161 271L160 270z"/>
<path style="fill:#63615e; stroke:none;" d="M198 270L199 271L198 270z"/>
<path style="fill:#aaa9a9; stroke:none;" d="M201 270L203 272L201 270z"/>
<path style="fill:#63615e; stroke:none;" d="M223 270L225 272L223 270M225 270L226 271L225 270M269 270L270 271L269 270M271 270L272 271L271 270z"/>
<path style="fill:#aaa9a9; stroke:none;" d="M330 270L331 271L330 270z"/>
<path style="fill:#63615e; stroke:none;" d="M333 270L334 271L333 270M379 270L380 271L379 270M381 270L382 271L381 270z"/>
<path style="fill:#aaa9a9; stroke:none;" d="M398 270L399 271L398 270M401 270L403 272L401 270z"/>
<path style="fill:#63615e; stroke:none;" d="M447 270L448 271L447 270M449 270L450 271L449 270M464 270L465 271L464 270M466 270L467 271L466 270z"/>
<path style="fill:#aaa9a9; stroke:none;" d="M512 270L513 271L512 270M515 270L516 271L515 270M823 270L824 271L823 270M156 271L157 272L156 271z"/>
<path style="fill:#63615e; stroke:none;" d="M159 271L160 272L159 271M199 271L202 274L199 271M201 271L202 272L201 271z"/>
<path style="fill:#aaa9a9; stroke:none;" d="M223 271L224 272L223 271M226 271L227 272L226 271z"/>
<path style="fill:#63615e; stroke:none;" d="M268 271L269 272L268 271z"/>
<path style="fill:#aaa9a9; stroke:none;" d="M271 271L272 272L271 271z"/>
<path style="fill:#63615e; stroke:none;" d="M331 271L332 272L331 271z"/>
<path style="fill:#aaa9a9; stroke:none;" d="M334 271L339 276L334 271z"/>
<path style="fill:#63615e; stroke:none;" d="M378 271L379 272L378 271z"/>
<path style="fill:#aaa9a9; stroke:none;" d="M381 271L382 272L381 271z"/>
<path style="fill:#63615e; stroke:none;" d="M399 271L400 272L399 271M401 271L402 272L401 271z"/>
<path style="fill:#aaa9a9; stroke:none;" d="M446 271L447 272L446 271M449 271L450 272L449 271M464 271L465 272L464 271z"/>
<path style="fill:#63615e; stroke:none;" d="M467 271L468 272L467 271M512 271L513 272L512 271M514 271L515 272L514 271z"/>
<path style="fill:#aaa9a9; stroke:none;" d="M825 271L826 272L825 271z"/>
<path style="fill:#63615e; stroke:none;" d="M156 272L157 273L156 272M158 272L156 275L158 272z"/>
<path style="fill:#aaa9a9; stroke:none;" d="M199 272L200 273L199 272z"/>
<path style="fill:#63615e; stroke:none;" d="M202 272L203 273L202 272z"/>
<path style="fill:#aaa9a9; stroke:none;" d="M224 272L225 273L224 272M227 272L228 273L227 272M267 272L268 273L267 272M270 272L271 273L270 272z"/>
<path style="fill:#63615e; stroke:none;" d="M332 272L334 274L332 272M334 272L335 273L334 272z"/>
<path style="fill:#aaa9a9; stroke:none;" d="M377 272L378 273L377 272M380 272L381 273L380 272M399 272L400 273L399 272z"/>
<path style="fill:#63615e; stroke:none;" d="M402 272L403 273L402 272M446 272L447 273L446 272M448 272L447 274L448 272z"/>
<path style="fill:#aaa9a9; stroke:none;" d="M465 272L466 273L465 272M468 272L469 273L468 272M511 272L512 273L511 272M514 272L515 273L514 272M853.333 272.667L853.667 273.333L853.333 272.667z"/>
<path style="fill:#63615e; stroke:none;" d="M155 273L156 274L155 273z"/>
<path style="fill:#aaa9a9; stroke:none;" d="M158 273L159 274L158 273M200 273L201 274L200 273z"/>
<path style="fill:#63615e; stroke:none;" d="M203 273L204 274L203 273z"/>
<path style="fill:#aaa9a9; stroke:none;" d="M225 273L226 274L225 273M228 273L230 275L228 273M266 273L267 274L266 273M269 273L270 274L269 273M332 273L333 274L332 273z"/>
<path style="fill:#63615e; stroke:none;" d="M335 273L336 274L335 273z"/>
<path style="fill:#aaa9a9; stroke:none;" d="M376 273L377 274L376 273M379 273L380 274L379 273z"/>
<path style="fill:#63615e; stroke:none;" d="M400 273L401 274L400 273M403 273L404 274L403 273z"/>
<path style="fill:#aaa9a9; stroke:none;" d="M444 273L445 274L444 273z"/>
<path style="fill:#63615e; stroke:none;" d="M445 273L446 274L445 273z"/>
<path style="fill:#aaa9a9; stroke:none;" d="M448 273L449 274L448 273z"/>
<path style="fill:#63615e; stroke:none;" d="M466 273L472 279L466 273z"/>
<path style="fill:#aaa9a9; stroke:none;" d="M469 273L472 276L469 273M510 273L511 274L510 273z"/>
<path style="fill:#63615e; stroke:none;" d="M513 273L509 278L513 273M82 274L82 277L83 277L82 274z"/>
<path style="fill:#aaa9a9; stroke:none;" d="M154 274L155 275L154 274M157 274L158 275L157 274M201 274L202 275L201 274M204 274L206 276L204 274z"/>
<path style="fill:#63615e; stroke:none;" d="M226 274L227 275L226 274M228 274L229 275L228 274M265 274L266 275L265 274M268 274L269 275L268 274z"/>
<path style="fill:#aaa9a9; stroke:none;" d="M333 274L334 275L333 274z"/>
<path style="fill:#63615e; stroke:none;" d="M336 274L337 275L336 274z"/>
<path style="fill:#aaa9a9; stroke:none;" d="M375 274L376 275L375 274z"/>
<path style="fill:#63615e; stroke:none;" d="M378 274L379 275L378 274M401 274L403 276L401 274M404 274L405 275L404 274M444 274L445 275L444 274z"/>
<path style="fill:#aaa9a9; stroke:none;" d="M447 274L448 275L447 274M466 274L467 275L466 274z"/>
<path style="fill:#63615e; stroke:none;" d="M469 274L470 275L469 274z"/>
<path style="fill:#aaa9a9; stroke:none;" d="M509 274L510 275L509 274M513 274L514 275L513 274z"/>
<path style="fill:#63615e; stroke:none;" d="M853 274L854 275L853 274z"/>
<path style="fill:#aaa9a9; stroke:none;" d="M153 275L154 276L153 275M156 275L157 276L156 275z"/>
<path style="fill:#63615e; stroke:none;" d="M202 275L203 276L202 275M204 275L205 276L204 275z"/>
<path style="fill:#aaa9a9; stroke:none;" d="M227 275L228 276L227 275z"/>
<path style="fill:#63615e; stroke:none;" d="M230 275L231 276L230 275z"/>
<path style="fill:#aaa9a9; stroke:none;" d="M231 275L232 276L231 275z"/>
<path style="fill:#63615e; stroke:none;" d="M264 275L265 276L264 275M267 275L268 276L267 275z"/>
<path style="fill:#aaa9a9; stroke:none;" d="M334 275L335 276L334 275z"/>
<path style="fill:#63615e; stroke:none;" d="M337 275L338 276L337 275z"/>
<path style="fill:#aaa9a9; stroke:none;" d="M373 275L372 277L373 275z"/>
<path style="fill:#63615e; stroke:none;" d="M374 275L375 276L374 275M377 275L378 276L377 275z"/>
<path style="fill:#aaa9a9; stroke:none;" d="M401 275L402 276L401 275z"/>
<path style="fill:#63615e; stroke:none;" d="M405 275L407 277L405 275z"/>
<path style="fill:#aaa9a9; stroke:none;" d="M406 275L407 276L406 275M442 275L441 277L442 275z"/>
<path style="fill:#63615e; stroke:none;" d="M443 275L444 276L443 275z"/>
<path style="fill:#aaa9a9; stroke:none;" d="M446 275L447 276L446 275M467 275L468 276L467 275z"/>
<path style="fill:#63615e; stroke:none;" d="M470 275L471 276L470 275z"/>
<path style="fill:#aaa9a9; stroke:none;" d="M508 275L509 276L508 275M512 275L513 276L512 275M152 276L153 277L152 276z"/>
<path style="fill:#63615e; stroke:none;" d="M155 276L156 277L155 276M203 276L204 277L203 276M205 276L206 277L205 276z"/>
<path style="fill:#aaa9a9; stroke:none;" d="M228 276L229 277L228 276M232 276L233 277L232 276M262 276L263 277L262 276z"/>
<path style="fill:#63615e; stroke:none;" d="M263 276L264 277L263 276z"/>
<path style="fill:#aaa9a9; stroke:none;" d="M266 276L267 277L266 276M335 276L336 277L335 276z"/>
<path style="fill:#63615e; stroke:none;" d="M339 276L340 277L339 276z"/>
<path style="fill:#aaa9a9; stroke:none;" d="M340 276L341 277L340 276z"/>
<path style="fill:#63615e; stroke:none;" d="M373 276L374 277L373 276z"/>
<path style="fill:#aaa9a9; stroke:none;" d="M376 276L377 277L376 276z"/>
<path style="fill:#63615e; stroke:none;" d="M403 276L404 277L403 276z"/>
<path style="fill:#aaa9a9; stroke:none;" d="M407 276L408 277L407 276z"/>
<path style="fill:#63615e; stroke:none;" d="M442 276L443 277L442 276z"/>
<path style="fill:#aaa9a9; stroke:none;" d="M445 276L446 277L445 276M468 276L469 277L468 276z"/>
<path style="fill:#63615e; stroke:none;" d="M472 276L474 278L472 276z"/>
<path style="fill:#aaa9a9; stroke:none;" d="M473 276L474 277L473 276M506 276L505 278L506 276z"/>
<path style="fill:#63615e; stroke:none;" d="M507 276L508 277L507 276z"/>
<path style="fill:#aaa9a9; stroke:none;" d="M511 276L512 277L511 276M82 277L83 278L82 277z"/>
<path style="fill:#63615e; stroke:none;" d="M152 277L153 278L152 277M154 277L153 279L154 277z"/>
<path style="fill:#aaa9a9; stroke:none;" d="M203 277L204 278L203 277z"/>
<path style="fill:#63615e; stroke:none;" d="M206 277L207 278L206 277z"/>
<path style="fill:#aaa9a9; stroke:none;" d="M229 277L231 279L229 277z"/>
<path style="fill:#63615e; stroke:none;" d="M230 277L231 278L230 277M233 277L234 278L233 277z"/>
<path style="fill:#aaa9a9; stroke:none;" d="M234 277L235 278L234 277M258 278L258 279L262 278L258 278z"/>
<path style="fill:#63615e; stroke:none;" d="M264 277L263 279L264 277z"/>
<path style="fill:#aaa9a9; stroke:none;" d="M265 277L266 278L265 277M336 277L337 278L336 277z"/>
<path style="fill:#63615e; stroke:none;" d="M337 277L338 278L337 277M341 277L342 278L341 277z"/>
<path style="fill:#aaa9a9; stroke:none;" d="M370 277L371 278L370 277z"/>
<path style="fill:#63615e; stroke:none;" d="M371 277L372 278L371 277M374 277L373 279L374 277z"/>
<path style="fill:#aaa9a9; stroke:none;" d="M375 277L376 278L375 277M404 277L405 278L404 277z"/>
<path style="fill:#63615e; stroke:none;" d="M408 277L409 278L408 277z"/>
<path style="fill:#aaa9a9; stroke:none;" d="M409 277L410 278L409 277M439 277L440 278L439 277z"/>
<path style="fill:#63615e; stroke:none;" d="M440 277L441 278L440 277z"/>
<path style="fill:#aaa9a9; stroke:none;" d="M444 277L445 278L444 277M469 277L470 278L469 277M474 277L475 278L474 277z"/>
<path style="fill:#63615e; stroke:none;" d="M506 277L507 278L506 277z"/>
<path style="fill:#aaa9a9; stroke:none;" d="M510 277L511 278L510 277M830 277L831 278L830 277z"/>
<path style="fill:#63615e; stroke:none;" d="M82 278L83 279L82 278M151 278L152 279L151 278z"/>
<path style="fill:#aaa9a9; stroke:none;" d="M154 278L155 279L154 278M204 278L205 279L204 278M207 278L208 279L207 278z"/>
<path style="fill:#63615e; stroke:none;" d="M231 278L232 279L231 278M235 278L236 279L235 278z"/>
<path style="fill:#aaa9a9; stroke:none;" d="M236 278L237 279L236 278z"/>
<path style="fill:#63615e; stroke:none;" d="M260 278L261 279L260 278z"/>
<path style="fill:#aaa9a9; stroke:none;" d="M264 278L265 279L264 278z"/>
<path style="fill:#63615e; stroke:none;" d="M338 278L339 279L338 278M342 278L343 279L342 278z"/>
<path style="fill:#aaa9a9; stroke:none;" d="M343 278L343 279L347 280L347 279L343 278M365 279L365 280L369 279L365 279z"/>
<path style="fill:#63615e; stroke:none;" d="M369 278L370 279L369 278z"/>
<path style="fill:#aaa9a9; stroke:none;" d="M374 278L375 279L374 278M405 278L406 279L405 278z"/>
<path style="fill:#63615e; stroke:none;" d="M406 278L407 279L406 278M410 278L411 279L410 278z"/>
<path style="fill:#aaa9a9; stroke:none;" d="M411 278L412 279L411 278M437 278L438 279L437 278z"/>
<path style="fill:#63615e; stroke:none;" d="M438 278L439 279L438 278M442 278L443 279L442 278z"/>
<path style="fill:#aaa9a9; stroke:none;" d="M443 278L444 279L443 278M470 278L471 279L470 278z"/>
<path style="fill:#63615e; stroke:none;" d="M475 278L476 279L475 278z"/>
<path style="fill:#aaa9a9; stroke:none;" d="M476.667 278.333L477.333 278.667L476.667 278.333M502.667 278.333L503.333 278.667L502.667 278.333z"/>
<path style="fill:#63615e; stroke:none;" d="M504 278L505 279L504 278M507 278L506 280L507 278z"/>
<path style="fill:#aaa9a9; stroke:none;" d="M508 278L509 279L508 278M82 279L82 282L83 282L82 279z"/>
<path style="fill:#63615e; stroke:none;" d="M85 279L85 280L149 280L129 279L85 279z"/>
<path style="fill:#aaa9a9; stroke:none;" d="M149 279L150 280L149 279z"/>
<path style="fill:#63615e; stroke:none;" d="M150 279L151 280L150 279z"/>
<path style="fill:#aaa9a9; stroke:none;" d="M153 279L154 280L153 279z"/>
<path style="fill:#63615e; stroke:none;" d="M205 279L206 280L205 279z"/>
<path style="fill:#aaa9a9; stroke:none;" d="M208 279L209 280L208 279M232 279L233 280L232 279z"/>
<path style="fill:#63615e; stroke:none;" d="M233 279L234 280L233 279M237 279L238 280L237 279z"/>
<path style="fill:#aaa9a9; stroke:none;" d="M238.667 279.333L239.333 279.667L238.667 279.333M256 279L257 280L256 279z"/>
<path style="fill:#63615e; stroke:none;" d="M257.667 279.333L258.333 279.667L257.667 279.333M261 279L262 280L261 279z"/>
<path style="fill:#aaa9a9; stroke:none;" d="M262 279L263 280L262 279M339 279L340 280L339 279z"/>
<path style="fill:#63615e; stroke:none;" d="M340 279L341 280L340 279M344 279L345 280L344 279M367 279L368 280L367 279M371 279L372 280L371 279z"/>
<path style="fill:#aaa9a9; stroke:none;" d="M372 279L373 280L372 279z"/>
<path style="fill:#63615e; stroke:none;" d="M407.667 279.333L408.333 279.667L407.667 279.333M412 279L413 280L412 279z"/>
<path style="fill:#aaa9a9; stroke:none;" d="M413.667 279.333L414.333 279.667L413.667 279.333M434.667 279.333L435.333 279.667L434.667 279.333z"/>
<path style="fill:#63615e; stroke:none;" d="M436 279L437 280L436 279M440 279L441 280L440 279z"/>
<path style="fill:#aaa9a9; stroke:none;" d="M441 279L442 280L441 279M472 279L473 280L472 279z"/>
<path style="fill:#63615e; stroke:none;" d="M473 279L474 280L473 279M477.667 279.333L478.333 279.667L477.667 279.333z"/>
<path style="fill:#aaa9a9; stroke:none;" d="M479.667 279.333L480.333 279.667L479.667 279.333M499.667 279.333L500.333 279.667L499.667 279.333z"/>
<path style="fill:#63615e; stroke:none;" d="M501 279L502 280L501 279z"/>
<path style="fill:#aaa9a9; stroke:none;" d="M507 279L508 280L507 279M791 279L792 280L791 279M794 279L795 280L794 279z"/>
<path style="fill:#63615e; stroke:none;" d="M152 280L153 281L152 280M206 280L206 281L209 282L209 281L209 280L206 280z"/>
<path style="fill:#aaa9a9; stroke:none;" d="M234 280L235 281L234 280z"/>
<path style="fill:#63615e; stroke:none;" d="M235 280L235 281L239 282L239 281L235 280M240 280L240 281L243 281L240 280z"/>
<path style="fill:#aaa9a9; stroke:none;" d="M243 280L243 281L253 281L243 280z"/>
<path style="fill:#63615e; stroke:none;" d="M253 280L253 281L256 281L253 280M259 280L260 281L259 280z"/>
<path style="fill:#aaa9a9; stroke:none;" d="M260 280L261 281L260 280M341 280L342 281L341 280z"/>
<path style="fill:#63615e; stroke:none;" d="M342 280L342 281L347 282L347 281L342 280M347 280L347 281L351 281L347 280z"/>
<path style="fill:#aaa9a9; stroke:none;" d="M351 280L351 281L361 281L351 280z"/>
<path style="fill:#63615e; stroke:none;" d="M361 280L361 281L365 281L361 280M368.667 280.333L369.333 280.667L368.667 280.333z"/>
<path style="fill:#aaa9a9; stroke:none;" d="M370 280L371 281L370 280M409 280L410 281L409 280z"/>
<path style="fill:#63615e; stroke:none;" d="M410 280L410 281L415 282L415 281L410 280M415 280L415 281L419 281L415 280z"/>
<path style="fill:#aaa9a9; stroke:none;" d="M419 280L419 281L430 281L419 280z"/>
<path style="fill:#63615e; stroke:none;" d="M430 280L430 281L434 281L430 280M438 280L439 281L438 280z"/>
<path style="fill:#aaa9a9; stroke:none;" d="M439 280L440 281L439 280M474 280L475 281L474 280z"/>
<path style="fill:#63615e; stroke:none;" d="M475.667 280.333L476.333 280.667L475.667 280.333M481 280L481 281L484 281L481 280z"/>
<path style="fill:#aaa9a9; stroke:none;" d="M484 280L484 281L496 281L484 280z"/>
<path style="fill:#63615e; stroke:none;" d="M496 280L496 281L499 281L496 280M503.667 280.333L504.333 280.667L503.667 280.333z"/>
<path style="fill:#aaa9a9; stroke:none;" d="M505 280L506 281L505 280z"/>
<path style="fill:#63615e; stroke:none;" d="M790 280L791 281L790 280M831.333 280.667L831.667 281.333L831.333 280.667M83 281L83 282L151 282L130 281L83 281z"/>
<path style="fill:#aaa9a9; stroke:none;" d="M151 281L152 282L151 281M206 281L207 282L206 281M209 281L210 282L209 281M236 281L237 282L236 281z"/>
<path style="fill:#63615e; stroke:none;" d="M256.667 281.333L257.333 281.667L256.667 281.333z"/>
<path style="fill:#aaa9a9; stroke:none;" d="M258 281L259 282L258 281M292 281L293 282L292 281M294 281L295 282L294 281M343 281L344 282L343 281z"/>
<path style="fill:#63615e; stroke:none;" d="M365.667 281.333L366.333 281.667L365.667 281.333z"/>
<path style="fill:#aaa9a9; stroke:none;" d="M367 281L368 282L367 281M411 281L412 282L411 281z"/>
<path style="fill:#63615e; stroke:none;" d="M434 281L434 282L437 282L434 281z"/>
<path style="fill:#aaa9a9; stroke:none;" d="M437 281L438 282L437 281M477 281L478 282L477 281z"/>
<path style="fill:#63615e; stroke:none;" d="M478.667 281.333L479.333 281.667L478.667 281.333M500.667 281.333L501.333 281.667L500.667 281.333z"/>
<path style="fill:#aaa9a9; stroke:none;" d="M502 281L503 282L502 281M711 281L712 282L711 281z"/>
<path style="fill:#63615e; stroke:none;" d="M762 281L762 284L763 284L762 281M788 281L789 282L788 281M795 281L796 282L795 281z"/>
<path style="fill:#aaa9a9; stroke:none;" d="M239 282L239 283L242 283L239 282z"/>
<path style="fill:#63615e; stroke:none;" d="M242 282L242 283L253 283L242 282z"/>
<path style="fill:#aaa9a9; stroke:none;" d="M253 282L253 283L256 283L253 282M346 282L346 283L349 283L346 282z"/>
<path style="fill:#63615e; stroke:none;" d="M349 282L349 283L362 283L349 282z"/>
<path style="fill:#aaa9a9; stroke:none;" d="M362 282L362 283L365 283L362 282M415 282L415 283L418 283L415 282z"/>
<path style="fill:#63615e; stroke:none;" d="M418 282L418 283L432 283L418 282z"/>
<path style="fill:#aaa9a9; stroke:none;" d="M432 282L432 283L435 283L432 282M480 282L480 283L483 283L480 282z"/>
<path style="fill:#63615e; stroke:none;" d="M483 282L483 283L497 283L483 282z"/>
<path style="fill:#aaa9a9; stroke:none;" d="M497 282L497 283L500 283L497 282M709 282L710 283L709 282z"/>
<path style="fill:#63615e; stroke:none;" d="M710 282L711 283L710 282M714 282L715 283L714 282z"/>
<path style="fill:#aaa9a9; stroke:none;" d="M786 282L787 283L786 282M796 282L797 283L796 282z"/>
<path style="fill:#63615e; stroke:none;" d="M708 283L709 284L708 283z"/>
<path style="fill:#aaa9a9; stroke:none;" d="M715 283L716 284L715 283M739 283L740 284L739 283M706 284L707 285L706 284z"/>
<path style="fill:#63615e; stroke:none;" d="M707 284L708 285L707 284M739 284L740 285L739 284z"/>
<path style="fill:#aaa9a9; stroke:none;" d="M762 284L762 287L763 287L762 284M782 284L783 285L782 284z"/>
<path style="fill:#63615e; stroke:none;" d="M783 284L784 285L783 284M797 284L798 285L797 284z"/>
<path style="fill:#aaa9a9; stroke:none;" d="M830 284L831 285L830 284z"/>
<path style="fill:#63615e; stroke:none;" d="M705 285L706 286L705 285M716 285L717 286L716 285z"/>
<path style="fill:#aaa9a9; stroke:none;" d="M781 285L782 286L781 285M703 286L704 287L703 286M717 286L718 287L717 286M779 286L780 287L779 286z"/>
<path style="fill:#63615e; stroke:none;" d="M780 286L781 287L780 286M799 286L800 287L799 286z"/>
<path style="fill:#aaa9a9; stroke:none;" d="M800 286L801 287L800 286M829 286L830 287L829 286z"/>
<path style="fill:#63615e; stroke:none;" d="M853 286L854 287L853 286z"/>
<path style="fill:#aaa9a9; stroke:none;" d="M801 287L802 288L801 287M853.333 287.667L853.667 288.333L853.333 287.667z"/>
<path style="fill:#63615e; stroke:none;" d="M700 288L701 289L700 288z"/>
<path style="fill:#aaa9a9; stroke:none;" d="M719 288L720 289L719 288z"/>
<path style="fill:#63615e; stroke:none;" d="M737 288L738 289L737 288M776 288L777 289L776 288M802 288L803 289L802 288z"/>
<path style="fill:#aaa9a9; stroke:none;" d="M827 288L828 289L827 288z"/>
<path style="fill:#63615e; stroke:none;" d="M698 289L699 290L698 289z"/>
<path style="fill:#aaa9a9; stroke:none;" d="M736 289L737 290L736 289z"/>
<path style="fill:#63615e; stroke:none;" d="M761.333 289.667L761.667 290.333L761.333 289.667M775 289L776 290L775 289z"/>
<path style="fill:#aaa9a9; stroke:none;" d="M804 289L805 290L804 289z"/>
<path style="fill:#63615e; stroke:none;" d="M826 289L827 290L826 289z"/>
<path style="fill:#aaa9a9; stroke:none;" d="M696 290L697 291L696 290z"/>
<path style="fill:#63615e; stroke:none;" d="M697 290L698 291L697 290M721 290L722 291L721 290M735 290L736 291L735 290M805 290L806 291L805 290z"/>
<path style="fill:#aaa9a9; stroke:none;" d="M806 290L807 291L806 290M824 290L825 291L824 290z"/>
<path style="fill:#63615e; stroke:none;" d="M825 290L826 291L825 290M852 290L853 291L852 290M695.333 291.667L695.667 292.333L695.333 291.667M723 291L724 292L723 291z"/>
<path style="fill:#aaa9a9; stroke:none;" d="M724 291L725 292L724 291M732 291L733 292L732 291z"/>
<path style="fill:#63615e; stroke:none;" d="M733 291L734 292L733 291M776 291L777 292L776 291M809 291L810 292L809 291z"/>
<path style="fill:#aaa9a9; stroke:none;" d="M810 291L811 292L810 291M821 291L822 292L821 291z"/>
<path style="fill:#63615e; stroke:none;" d="M822 291L823 292L822 291z"/>
<path style="fill:#aaa9a9; stroke:none;" d="M852 291L853 292L852 291z"/>
<path style="fill:#63615e; stroke:none;" d="M727.667 292.333L728.333 292.667L727.667 292.333M813 292L813 293L819 293L813 292z"/>
<path style="fill:#aaa9a9; stroke:none;" d="M760 293L761 294L760 293z"/>
<path style="fill:#63615e; stroke:none;" d="M777 293L778 294L777 293M851 293L852 294L851 293M696 294L697 295L696 294M778 294L779 295L778 294M759 295L760 296L759 295M850 295L851 296L850 295z"/>
<path style="fill:#aaa9a9; stroke:none;" d="M697 296L698 297L697 296M779 296L780 297L779 296z"/>
<path style="fill:#63615e; stroke:none;" d="M698 297L699 298L698 297M758 297L759 298L758 297M780 297L781 298L780 297M849 297L850 298L849 297M781 298L782 299L781 298M757 299L758 300L757 299M782 299L783 300L782 299z"/>
<path style="fill:#aaa9a9; stroke:none;" d="M700 300L701 301L700 300z"/>
<path style="fill:#63615e; stroke:none;" d="M756 300L757 301L756 300M783 300L784 301L783 300z"/>
<path style="fill:#aaa9a9; stroke:none;" d="M847 300L848 301L847 300z"/>
<path style="fill:#63615e; stroke:none;" d="M701 301L702 302L701 301M784 301L785 302L784 301M846 301L847 302L846 301z"/>
<path style="fill:#aaa9a9; stroke:none;" d="M702 302L703 303L702 302M785 302L786 303L785 302M845 302L846 303L845 302z"/>
<path style="fill:#63615e; stroke:none;" d="M703 303L704 304L703 303z"/>
<path style="fill:#aaa9a9; stroke:none;" d="M754 303L755 304L754 303z"/>
<path style="fill:#63615e; stroke:none;" d="M844 303L845 304L844 303z"/>
<path style="fill:#aaa9a9; stroke:none;" d="M704 304L705 305L704 304z"/>
<path style="fill:#63615e; stroke:none;" d="M788 304L789 305L788 304z"/>
<path style="fill:#aaa9a9; stroke:none;" d="M843 304L844 305L843 304M789 305L790 306L789 305M707 306L708 307L707 306z"/>
<path style="fill:#63615e; stroke:none;" d="M750 306L751 307L750 306z"/>
<path style="fill:#aaa9a9; stroke:none;" d="M791 306L792 307L791 306M840 306L841 307L840 306z"/>
<path style="fill:#63615e; stroke:none;" d="M793 307L794 308L793 307M838 307L839 308L838 307M711 308L712 309L711 308z"/>
<path style="fill:#aaa9a9; stroke:none;" d="M747 308L748 309L747 308M795 308L796 309L795 308z"/>
<path style="fill:#63615e; stroke:none;" d="M796 308L797 309L796 308M836 308L837 309L836 308M713 309L714 310L713 309z"/>
<path style="fill:#aaa9a9; stroke:none;" d="M745 309L746 310L745 309z"/>
<path style="fill:#63615e; stroke:none;" d="M798 309L799 310L798 309z"/>
<path style="fill:#aaa9a9; stroke:none;" d="M834 309L835 310L834 309M715 310L716 311L715 310z"/>
<path style="fill:#63615e; stroke:none;" d="M716 310L717 311L716 310M741.667 310.333L742.333 310.667L741.667 310.333M801.667 310.333L802.333 310.667L801.667 310.333M830 310L831 311L830 310z"/>
<path style="fill:#aaa9a9; stroke:none;" d="M831 310L832 311L831 310z"/>
<path style="fill:#63615e; stroke:none;" d="M719.667 311.333L720.333 311.667L719.667 311.333M738 311L739 312L738 311z"/>
<path style="fill:#aaa9a9; stroke:none;" d="M739 311L740 312L739 311z"/>
<path style="fill:#63615e; stroke:none;" d="M805.667 311.333L806.333 311.667L805.667 311.333M826 311L827 312L826 311z"/>
<path style="fill:#aaa9a9; stroke:none;" d="M827 311L828 312L827 311M725 312L725 313L728 313L725 312z"/>
<path style="fill:#63615e; stroke:none;" d="M728 312L728 313L731 313L728 312z"/>
<path style="fill:#aaa9a9; stroke:none;" d="M731.667 312.333L732.333 312.667L731.667 312.333M812.667 312.333L813.333 312.667L812.667 312.333z"/>
<path style="fill:#63615e; stroke:none;" d="M814 312L814 313L819 313L814 312z"/>
<path style="fill:#aaa9a9; stroke:none;" d="M819.667 312.333L820.333 312.667L819.667 312.333z"/>
<path style="fill:#63615e; stroke:none;" d="M962 420L963 421L962 420z"/>
</svg>
