<?xml version="1.0" standalone="yes"?>
<svg xmlns="http://www.w3.org/2000/svg" width="900" height="450">
<path style="fill:#ffffff; stroke:none;" d="M0 0L0 450L900 450L900 0L0 0z"/>
<path style="fill:#57b25c; stroke:none;" d="M165 132C162.726 138.688 156.816 141.939 152.289 147.015C144.688 155.537 137.195 165.911 134 177L135 177L139 168L140 168L167 250L168 250C168 220.667 168.047 191.333 168 162C167.99 155.899 169.553 135.441 165 132z"/>
<path style="fill:#25963b; stroke:none;" d="M167 135L168 250L167 250L156.515 217L140 168L139 168C117.443 204.934 121.425 268.266 164 290L166 270L167 270C167.147 277.104 168.483 283.399 173 289L174 289C182.844 281.273 190.526 273.181 196.546 263C222.774 218.65 198.438 168.434 167 135z"/>
<path style="fill:#57b25c; stroke:none;" d="M168 136L169 137L168 136M170 139L171 140L170 139M171 141L172 142L171 141M172 142L173 143L172 142M173 143L174 144L173 143M174 144L175 145L174 144M175 145L176 146L175 145M176 146L177 147L176 146M180 151L181 152L180 151M181 152L182 153L181 152M182 153L183 154L182 153M183 154L184 155L183 154M184 155L185 156L184 155M185 157L186 158L185 157M186 158L187 159L186 158M187 159L188 160L187 159M188 161L189 162L188 161M189 162L190 163L189 162M190 164L191 165L190 164M191 165L192 166L191 165M192 167L193 168L192 167M193 169L194 170L193 169M194 170L195 171L194 170M195 172L196 173L195 172M196 174L197 175L196 174M197 176L198 177L197 176M133 178L134 179L133 178M198.333 178.667L198.667 179.333L198.333 178.667M132.333 180.667L132.667 181.333L132.333 180.667M199 181L200 182L199 181M131.333 183.667L131.667 184.333L131.333 183.667M200 183L201 184L200 183M130.333 186.667L130.667 187.333L130.333 186.667M201 186L202 187L201 186M202 188L202 191L203 191L202 188M129 190L130 191L129 190M203 191L203 194L204 194L203 191M128.333 193.667L128.667 194.333L128.333 193.667M204 195L204 198L205 198L204 195M127.333 198.667L127.667 199.333L127.333 198.667M205.333 199.667L205.667 200.333L205.333 199.667z"/>
<path style="fill:#93795a; stroke:none;" d="M610 207C614.398 207.569 619.454 208.096 622.142 212.109C625.193 216.665 624 223.801 624 229C624 242.516 627.562 262.242 622.4 274.956C620.336 280.042 614.225 279.754 612 285C622.791 288.19 636.762 286.018 648 286C657.437 285.985 667.656 284.293 676 279.651C699.212 266.739 705.168 229.961 684.829 211.619C672.881 200.843 655.188 199.922 640 201.715C631.409 202.728 613.385 197.366 610 207M707 201L705 207L715.972 211.228L717 228L716.566 273.981L705 286C723.473 286 748.962 290.445 765 279.2C780.546 268.3 780.01 241.267 758 239C761.087 235.985 764.7 233.671 767.146 229.999C773.541 220.397 768.381 207.68 758 203.715C742.96 197.969 722.946 203.015 707 201z"/>
<path style="fill:#57b25c; stroke:none;" d="M126 203L126 207L127 207L126 203M206 203L206 208L207 208L206 203z"/>
<path style="fill:#ffffff; stroke:none;" d="M638.603 209.028C634.446 212.321 637 228.044 637 233C637 244.258 633.492 262.508 637.742 272.956C641.988 283.393 663.19 279.717 669.996 274.468C685.692 262.362 687.47 232.437 673.815 218.093C667.752 211.725 647.209 202.212 638.603 209.028M731 208L730 237C736.106 237 745.649 238.797 750.945 235.258C758.347 230.312 757.603 216.804 750.895 211.652C745.298 207.354 737.628 208 731 208z"/>
<path style="fill:#57b25c; stroke:none;" d="M207 212L207 228L208 228L207 212M125 213L125 225L126 225L125 213z"/>
<path style="fill:#93795a; stroke:none;" d="M446 228L446 229L450 229L446 228M251 229L252 230L251 229z"/>
<path style="fill:#483127; stroke:none;" d="M252 229L233 237C246.08 240.779 246.475 264.712 241.436 275.942C239.527 280.197 234.854 280.078 234 285L261 285L261 281C246.089 277.094 246.894 236.858 266 237.198C283.019 237.501 283.516 277.832 269 281L269 285L297 285L297 281C284.714 278.038 288 265.126 288 255C288 251.107 287.04 245.619 289.603 242.34C299.26 229.992 311.837 242.066 313.421 253C314.086 257.597 314.272 262.366 313.83 267C313.057 275.116 307.154 278.328 306 285C312.78 285 330.081 288.261 333 281C316.225 276.964 327.773 250.561 320.951 238.015C311.477 220.592 299.986 235.767 288.09 236.463C284.013 236.701 279.495 230.466 275 229.544C266.841 227.871 259.599 234.326 253 238L252 229z"/>
<path style="fill:#93795a; stroke:none;" d="M268.667 229.333L269.333 229.667L268.667 229.333M275.667 229.333L276.333 229.667L275.667 229.333M302.667 229.333L303.333 229.667L302.667 229.333M309.667 229.333L310.333 229.667L309.667 229.333z"/>
<path style="fill:#57b25c; stroke:none;" d="M311 229L312 230L311 229z"/>
<path style="fill:#93795a; stroke:none;" d="M366 229L366 230L369 230L366 229z"/>
<path style="fill:#483127; stroke:none;" d="M369 229.44C360.189 230.785 351.119 235.013 346.532 243.001C334.871 263.309 350.363 289.183 374 285.699C408.305 280.643 404.74 223.984 369 229.44z"/>
<path style="fill:#93795a; stroke:none;" d="M376 229L376 230L379 230L376 229M426 229L427 230L426 229z"/>
<path style="fill:#483127; stroke:none;" d="M408 234C409.688 239.229 416.254 239.487 417.682 245.015C419.468 251.926 419.905 268.345 417.258 274.981C415.324 279.828 409.899 279.607 409 285C415.717 285 435.55 288.38 438 281C435.096 280.214 431.69 279.679 430.028 276.853C426.017 270.033 426.033 246.802 432.133 241.394C442.143 232.522 453.688 241.646 453.985 253C454.125 258.326 454.011 263.673 454 269C453.982 277.759 447.159 278.049 446 285L474 285L474 280C464.95 278.991 465 272.618 465 265C465 252.117 467.142 228.688 448 229.056C444.827 229.117 441.864 229.997 439 231.324C435.282 233.047 432.104 235.361 429 238L428 229L408 234z"/>
<path style="fill:#93795a; stroke:none;" d="M428 229L429 230L428 229M442.667 229.333L443.333 229.667L442.667 229.333M453 229L454 230L453 229M502.667 229.333L503.333 229.667L502.667 229.333z"/>
<path style="fill:#483127; stroke:none;" d="M495 268L485 276C486.381 280.637 488.363 283.386 493 285C489.169 290.205 481.18 294.093 480.269 301C479.035 310.351 488.87 316.94 497 317.826C510.832 319.335 527.21 314.762 533.442 301C540.914 284.499 525.256 278.683 512 278.039C508.394 277.863 499.658 278.29 498.782 273.247C498.076 269.174 515.715 265.597 518.907 263.072C526.863 256.777 525.529 247.984 526 239C532.569 240.783 535.79 237.463 536 231C521.173 236.708 508.245 225.178 493 232.996C478.386 240.49 478.48 263.093 495 268z"/>
<path style="fill:#93795a; stroke:none;" d="M510 229L510 230L513 230L510 229M567 229L567 230L570 230L567 229z"/>
<path style="fill:#483127; stroke:none;" d="M570 229.432C560.864 230.635 551.335 234.654 546.533 243.004C534.949 263.146 550.645 289.067 574 285.7C607.883 280.815 605.513 224.755 570 229.432z"/>
<path style="fill:#93795a; stroke:none;" d="M576 229L576 230L579 230L576 229z"/>
<path style="fill:#57b25c; stroke:none;" d="M126 230L126 233L127 233L126 230z"/>
<path style="fill:#93795a; stroke:none;" d="M248 230L249 231L248 230M266 230L267 231L266 230M278 230L279 231L278 230z"/>
<path style="fill:#57b25c; stroke:none;" d="M299 230L300 231L299 230z"/>
<path style="fill:#93795a; stroke:none;" d="M300 230L301 231L300 230M313 230L314 231L313 230M363 230L364 231L363 230M381 230L382 231L381 230M423 230L424 231L423 230M440 230L441 231L440 230M455 230L456 231L455 230M498.667 230.333L499.333 230.667L498.667 230.333M515 230L516 231L515 230M535 230L536 231L535 230M563 230L564 231L563 230M581 230L582 231L581 230M245 231L246 232L245 231M263 231L264 232L263 231M280 231L281 232L280 231M297 231L298 232L297 231M315 231L316 232L315 231M360 231L361 232L360 231M384 231L385 232L384 231M419.667 231.333L420.333 231.667L419.667 231.333M438 231L439 232L438 231z"/>
<path style="fill:#57b25c; stroke:none;" d="M457 231L458 232L457 231z"/>
<path style="fill:#93795a; stroke:none;" d="M496 231L497 232L496 231M518 231L519 232L518 231M534 231L535 232L534 231M536 231L536 235L537 235L536 231M560 231L561 232L560 231M584 231L585 232L584 231z"/>
<path style="fill:#57b25c; stroke:none;" d="M206 232L206 236L207 236L206 232z"/>
<path style="fill:#93795a; stroke:none;" d="M241.667 232.333L242.333 232.667L241.667 232.333M261 232L262 233L261 232M295 232L296 233L295 232M316 232L317 233L316 232M358 232L359 233L358 232M415.667 232.333L416.333 232.667L415.667 232.333M436 232L437 233L436 232M458 232L459 233L458 232M493 232L494 233L493 232M520.667 232.333L521.333 232.667L520.667 232.333M532 232L533 233L532 232M558 232L559 233L558 232M586 232L587 233L586 232M236.667 233.333L237.333 233.667L236.667 233.333M260 233L261 234L260 233M356 233L357 234L356 233M387 233L388 234L387 233M410 233L410 234L413 234L410 233M428 233L428 237L429 237L428 233z"/>
<path style="fill:#57b25c; stroke:none;" d="M434 233L435 234L434 233z"/>
<path style="fill:#93795a; stroke:none;" d="M459 233L460 234L459 233M491 233L492 234L491 233M525 233L525 234L530 234L525 233M556 233L557 234L556 233M587 233L588 234L587 233M233 234L234 235L233 234M258 234L259 235L258 234M292 234L293 235L292 234M318 234L319 235L318 234M354 234L355 235L354 234M388 234L389 235L388 234M433 234L434 235L433 234M460 234L461 235L460 234M490 234L491 235L490 234M500 234L500 235L506 235L500 234M554 234L555 235L554 234M232.333 235.667L232.667 236.333L232.333 235.667M257 235L258 236L257 235M290 235L291 236L290 235M319 235L320 236L319 235M353 235L354 236L353 235M363.667 235.333L364.333 235.667L363.667 235.333z"/>
<path style="fill:#ffffff; stroke:none;" d="M365 235.576C345.232 241.013 354.551 285.703 376.999 279.566C395.344 274.552 386.943 229.542 365 235.576z"/>
<path style="fill:#93795a; stroke:none;" d="M371 235L371 236L374 236L371 235z"/>
<path style="fill:#57b25c; stroke:none;" d="M390 235L391 236L390 235z"/>
<path style="fill:#93795a; stroke:none;" d="M407.333 235.667L407.667 236.333L407.333 235.667z"/>
<path style="fill:#57b25c; stroke:none;" d="M488 235L489 236L488 235z"/>
<path style="fill:#93795a; stroke:none;" d="M498 235L499 236L498 235z"/>
<path style="fill:#ffffff; stroke:none;" d="M499.043 235.742C486.196 240.946 494.415 268.514 508.956 262.837C521.975 257.755 514.938 229.305 499.043 235.742z"/>
<path style="fill:#93795a; stroke:none;" d="M508 235L509 236L508 235M553 235L554 236L553 235M557 241L565 236L557 241z"/>
<path style="fill:#ffffff; stroke:none;" d="M565 235.657C545.342 241.595 554.887 285.611 576.999 279.566C596.349 274.277 586.633 229.122 565 235.657z"/>
<path style="fill:#93795a; stroke:none;" d="M571 235L571 236L574 236L571 235M590 235L591 236L590 235z"/>
<path style="fill:#57b25c; stroke:none;" d="M127.333 236.667L127.667 237.333L127.333 236.667z"/>
<path style="fill:#93795a; stroke:none;" d="M255 236L256 237L255 236M285 236L286 237L285 236M289 236L290 237L289 236M320 236L321 237L320 236M351 236L352 237L351 236M361 236L362 237L361 236M374.667 236.333L375.333 236.667L374.667 236.333M391 236L392 237L391 236M430 236L431 237L430 236M487 236L488 237L487 236M496 236L497 237L496 236M510 236L511 237L510 236M552 236L553 237L552 236M575 236L576 237L575 236M591 236L592 237L591 236M234.667 237.333L235.333 237.667L234.667 237.333M253.667 237.333L254.333 237.667L253.667 237.333M262 237L262 238L270 238L262 237M286 237L287 238L286 237M288 237L289 238L288 237M298 237L298 238L303 238L298 237M350 237L351 238L350 237M360 237L361 238L360 237M376 237L377 238L376 237M408 237L409 238L408 237M429 237L430 238L429 237M462 237L463 238L462 237M486 237L487 238L486 237M495 237L496 238L495 237M511 237L512 238L511 237M535 237L536 238L535 237z"/>
<path style="fill:#57b25c; stroke:none;" d="M576 237L577 238L576 237z"/>
<path style="fill:#93795a; stroke:none;" d="M577 237L578 238L577 237M592 237L593 238L592 237z"/>
<path style="fill:#57b25c; stroke:none;" d="M205 238L205 241L206 241L205 238M236 238L237 239L236 238z"/>
<path style="fill:#93795a; stroke:none;" d="M237 238L238 239L237 238M259.667 238.333L260.333 238.667L259.667 238.333M271 238L272 239L271 238M295.667 238.333L296.333 238.667L295.667 238.333M304.667 238.333L305.333 238.667L304.667 238.333M321 238L322 239L321 238M349 238L350 239L349 238M359 238L360 239L359 238M378 238L379 239L378 238M410.667 238.333L411.333 238.667L410.667 238.333M436 238L436 239L439 239L436 238M444 238L444 239L447 239L444 238z"/>
<path style="fill:#57b25c; stroke:none;" d="M485 238L486 239L485 238z"/>
<path style="fill:#93795a; stroke:none;" d="M512 238L513 239L512 238M534 238L535 239L534 238M578 238L579 239L578 238M593 238L594 239L593 238M239 239L240 240L239 239M257 239L258 240L257 239M273 239L274 240L273 239M292.667 239.333L293.333 239.667L292.667 239.333M307 239L308 240L307 239M348 239L349 240L348 239M358 239L359 240L358 239M379 239L380 240L379 239M393 239L394 240L393 239M413 239L414 240L413 239M434 239L435 240L434 239M447 239L448 240L447 239M463 239L464 240L463 239M494 239L495 240L494 239M526 239L527 240L526 239M532.667 239.333L533.333 239.667L532.667 239.333M579 239L580 240L579 239z"/>
<path style="fill:#57b25c; stroke:none;" d="M128 240L129 241L128 240z"/>
<path style="fill:#93795a; stroke:none;" d="M241 240L242 241L241 240M255 240L256 241L255 240z"/>
<path style="fill:#57b25c; stroke:none;" d="M256 240L257 241L256 240z"/>
<path style="fill:#93795a; stroke:none;" d="M274 240L275 241L274 240M291 240L292 241L291 240M308 240L309 241L308 240M322.333 240.667L322.667 241.333L322.333 240.667M357 240L358 241L357 240M380 240L381 241L380 240M394 240L395 241L394 240M415 240L416 241L415 240M432 240L433 241L432 240M449 240L450 241L449 240M484 240L485 241L484 240M513 240L514 241L513 240M525.333 240.667L525.667 241.333L525.333 240.667M580 240L581 241L580 240M594 240L595 241L594 240M254 241L255 242L254 241M275.333 241.667L275.667 242.333L275.333 241.667M289 241L290 242L289 241z"/>
<path style="fill:#57b25c; stroke:none;" d="M309 241L310 242L309 241z"/>
<path style="fill:#93795a; stroke:none;" d="M347 241L348 242L347 241M381 241L382 242L381 241M416 241L417 242L416 241M450 241L451 242L450 241M493 241L494 242L493 241M514.333 241.667L514.667 242.333L514.333 241.667M547 241L548 242L547 241M581 241L582 242L581 241M595.333 241.667L595.667 242.333L595.333 241.667z"/>
<path style="fill:#57b25c; stroke:none;" d="M204 242L204 245L205 245L204 242z"/>
<path style="fill:#93795a; stroke:none;" d="M242 242L242 272L243 272L242 242M253 242L254 243L253 242M288 242L289 243L288 242M310 242L311 243L310 242M346 242L347 243L346 242M356 242L357 243L356 242M395 242L396 243L395 242M417 242L417 276L418 276L417 242M451 242L452 243L451 242M464 242L464 245L465 245L464 242M483 242L484 243L483 242M546 242L547 243L546 242M556 242L557 243L556 242M582.333 242.667L582.667 243.333L582.333 242.667z"/>
<path style="fill:#57b25c; stroke:none;" d="M129.333 243.667L129.667 244.333L129.333 243.667z"/>
<path style="fill:#93795a; stroke:none;" d="M276.333 243.667L276.667 244.333L276.333 243.667z"/>
<path style="fill:#57b25c; stroke:none;" d="M288 243L289 244L288 243z"/>
<path style="fill:#93795a; stroke:none;" d="M382 243L383 244L382 243M429 243L430 244L429 243M596.333 243.667L596.667 244.333L596.333 243.667z"/>
<path style="fill:#ffffff; stroke:none;" d="M731.603 244.028C728.522 246.468 730 254.524 730 258C730 263.254 728.956 270.231 731.938 274.891C736.298 281.704 751.385 280.146 756.787 275.442C770.979 263.084 757.273 245.787 743 243.729C739.844 243.274 734.394 241.818 731.603 244.028z"/>
<path style="fill:#93795a; stroke:none;" d="M288 244L288 277L289 277L288 244M323.333 244.667L323.667 245.333L323.333 244.667M345 244L346 245L345 244M355.333 244.667L355.667 245.333L355.333 244.667M383 244L384 245L383 244M396 244L397 245L396 244M452 244L453 245L452 244M515 244L515 249L516 249L515 244M526 244L526 250L527 250L526 244M545 244L546 245L545 244M555 244L555 247L556 247L555 244M583 244L584 245L583 244M252 245L252 270L253 270L252 245M482.333 245.667L482.667 246.333L482.333 245.667M492 245L492 249L493 249L492 245z"/>
<path style="fill:#57b25c; stroke:none;" d="M130 246L131 247L130 246M203.333 246.667L203.667 247.333L203.333 246.667z"/>
<path style="fill:#93795a; stroke:none;" d="M277 246L277 249L278 249L277 246M312 246L313 247L312 246M344.333 246.667L344.667 247.333L344.333 246.667M384.333 246.667L384.667 247.333L384.333 246.667M397.333 246.667L397.667 247.333L397.333 246.667M428 246L428 262L429 262L428 246M544.333 246.667L544.667 247.333L544.333 246.667M584.333 246.667L584.667 247.333L584.333 246.667M597.333 246.667L597.667 247.333L597.333 246.667M453 247L453 251L454 251L453 247M554 248L554 260L555 260L554 248z"/>
<path style="fill:#57b25c; stroke:none;" d="M131 249L132 250L131 249M202.333 249.667L202.667 250.333L202.333 249.667z"/>
<path style="fill:#93795a; stroke:none;" d="M343.333 249.667L343.667 250.333L343.333 249.667M354 249L354 259L355 259L354 249M385.333 249.667L385.667 250.333L385.333 249.667z"/>
<path style="fill:#57b25c; stroke:none;" d="M465 249L466 250L465 249M515 249L516 250L515 249z"/>
<path style="fill:#93795a; stroke:none;" d="M543 249L543 252L544 252L543 249M585.333 249.667L585.667 250.333L585.333 249.667z"/>
<path style="fill:#57b25c; stroke:none;" d="M598 249L599 250L598 249z"/>
<path style="fill:#93795a; stroke:none;" d="M398 250L398 263L399 263L398 250M465 250L465 277L466 277L465 250z"/>
<path style="fill:#57b25c; stroke:none;" d="M526 250L527 251L526 250z"/>
<path style="fill:#93795a; stroke:none;" d="M598 250L598 254L599 254L598 250z"/>
<path style="fill:#57b25c; stroke:none;" d="M132 251L133 252L132 251z"/>
<path style="fill:#93795a; stroke:none;" d="M515 251L515 256L516 256L515 251z"/>
<path style="fill:#57b25c; stroke:none;" d="M201 252L202 253L201 252M493 252L494 253L493 252z"/>
<path style="fill:#93795a; stroke:none;" d="M525 252L525 255L526 255L525 252z"/>
<path style="fill:#57b25c; stroke:none;" d="M133.333 253.667L133.667 254.333L133.333 253.667z"/>
<path style="fill:#93795a; stroke:none;" d="M313 253L313 270L314 270L313 253M386 253L386 258L387 258L386 253M493 253L494 254L493 253M586 253L586 256L587 256L586 253z"/>
<path style="fill:#57b25c; stroke:none;" d="M200.333 254.667L200.667 255.333L200.333 254.667z"/>
<path style="fill:#93795a; stroke:none;" d="M342 254L342 260L343 260L342 254M482.333 254.667L482.667 255.333L482.333 254.667z"/>
<path style="fill:#57b25c; stroke:none;" d="M542 254L543 255L542 254M134.333 255.667L134.667 256.333L134.333 255.667z"/>
<path style="fill:#93795a; stroke:none;" d="M542 255L542 260L543 260L542 255z"/>
<path style="fill:#57b25c; stroke:none;" d="M482 256L483 257L482 256z"/>
<path style="fill:#93795a; stroke:none;" d="M494 256L495 257L494 256z"/>
<path style="fill:#57b25c; stroke:none;" d="M514 256L515 257L514 256z"/>
<path style="fill:#93795a; stroke:none;" d="M524 256L525 257L524 256z"/>
<path style="fill:#57b25c; stroke:none;" d="M135.333 257.667L135.667 258.333L135.333 257.667M199 257L200 258L199 257z"/>
<path style="fill:#93795a; stroke:none;" d="M514.333 257.667L514.667 258.333L514.333 257.667z"/>
<path style="fill:#57b25c; stroke:none;" d="M386 258L386 263L387 263L386 258z"/>
<path style="fill:#93795a; stroke:none;" d="M483.333 258.667L483.667 259.333L483.333 258.667M495 258L496 259L495 258M523 258L524 259L523 258z"/>
<path style="fill:#57b25c; stroke:none;" d="M136.333 259.667L136.667 260.333L136.333 259.667M198 259L199 260L198 259z"/>
<path style="fill:#93795a; stroke:none;" d="M496 259L497 260L496 259M513 259L514 260L513 259M522 259L523 260L522 259M598 259L598 264L599 264L598 259z"/>
<path style="fill:#57b25c; stroke:none;" d="M342 260L343 261L342 260z"/>
<path style="fill:#93795a; stroke:none;" d="M484 260L485 261L484 260M497 260L498 261L497 260z"/>
<path style="fill:#57b25c; stroke:none;" d="M137 261L138 262L137 261M197 261L198 262L197 261M484 261L485 262L484 261z"/>
<path style="fill:#93795a; stroke:none;" d="M498 261L499 262L498 261M555 261L555 264L556 264L555 261M355 262L355 265L356 265L355 262M485 262L486 263L485 262M499 262L500 263L499 262M510 262L511 263L510 262M519 262L520 263L519 262z"/>
<path style="fill:#57b25c; stroke:none;" d="M138 263L139 264L138 263z"/>
<path style="fill:#93795a; stroke:none;" d="M386 263L386 269L387 269L386 263M486 263L487 264L486 263M501 263L501 264L504 264L501 263M507.667 263.333L508.333 263.667L507.667 263.333M518 263L519 264L518 263M543 263L543 266L544 266L543 263z"/>
<path style="fill:#57b25c; stroke:none;" d="M139 264L140 265L139 264M195 264L196 265L195 264z"/>
<path style="fill:#93795a; stroke:none;" d="M343 264L343 267L344 267L343 264M487 264L488 265L487 264M517 264L518 265L517 264M397.333 265.667L397.667 266.333L397.333 265.667M488 265L489 266L488 265M515 265L516 266L515 265z"/>
<path style="fill:#57b25c; stroke:none;" d="M556 265L557 266L556 265M586 265L587 266L586 265z"/>
<path style="fill:#93795a; stroke:none;" d="M597 265L597 268L598 268L597 265z"/>
<path style="fill:#57b25c; stroke:none;" d="M140 266L141 267L140 266M194 266L195 267L194 266z"/>
<path style="fill:#93795a; stroke:none;" d="M356.333 266.667L356.667 267.333L356.333 266.667M489.667 266.333L490.333 266.667L489.667 266.333M513 266L514 267L513 266z"/>
<path style="fill:#57b25c; stroke:none;" d="M543 266L544 267L543 266z"/>
<path style="fill:#93795a; stroke:none;" d="M556 266L557 267L556 266M586 266L586 269L587 269L586 266z"/>
<path style="fill:#57b25c; stroke:none;" d="M141 267L142 268L141 267M193 267L194 268L193 267z"/>
<path style="fill:#93795a; stroke:none;" d="M491.667 267.333L492.333 267.667L491.667 267.333M510.667 267.333L511.333 267.667L510.667 267.333M344.333 268.667L344.667 269.333L344.333 268.667z"/>
<path style="fill:#57b25c; stroke:none;" d="M357 268L358 269L357 268z"/>
<path style="fill:#93795a; stroke:none;" d="M396.333 268.667L396.667 269.333L396.333 268.667M494.333 268.667L494.667 269.333L494.333 268.667M506.667 268.333L507.333 268.667L506.667 268.333z"/>
<path style="fill:#57b25c; stroke:none;" d="M508 268L509 269L508 268z"/>
<path style="fill:#93795a; stroke:none;" d="M544.333 268.667L544.667 269.333L544.333 268.667M557.333 268.667L557.667 269.333L557.333 268.667M596.333 268.667L596.667 269.333L596.333 268.667z"/>
<path style="fill:#57b25c; stroke:none;" d="M142 269L143 270L142 269M192 269L193 270L192 269z"/>
<path style="fill:#93795a; stroke:none;" d="M357 269L358 270L357 269M500 269L501 270L500 269z"/>
<path style="fill:#57b25c; stroke:none;" d="M143 270L144 271L143 270M166 270L166 275L167 275L166 270M191 270L192 271L191 270z"/>
<path style="fill:#93795a; stroke:none;" d="M385.333 270.667L385.667 271.333L385.333 270.667M493 270L494 271L493 270z"/>
<path style="fill:#57b25c; stroke:none;" d="M558 270L559 271L558 270z"/>
<path style="fill:#93795a; stroke:none;" d="M345.333 271.667L345.667 272.333L345.333 271.667M358 271L359 272L358 271M395 271L396 272L395 271M492 271L493 272L492 271M498 271L499 272L498 271M545 271L546 272L545 271M585.333 271.667L585.667 272.333L585.333 271.667M595 271L596 272L595 271z"/>
<path style="fill:#57b25c; stroke:none;" d="M190 272L191 273L190 272z"/>
<path style="fill:#93795a; stroke:none;" d="M359 272L360 273L359 272z"/>
<path style="fill:#57b25c; stroke:none;" d="M429 272L429 275L430 275L429 272z"/>
<path style="fill:#93795a; stroke:none;" d="M490 272L491 273L490 272M497 272L498 273L497 272M559 272L560 273L559 272z"/>
<path style="fill:#57b25c; stroke:none;" d="M145 273L146 274L145 273M189 273L190 274L189 273M277.333 273.667L277.667 274.333L277.333 273.667z"/>
<path style="fill:#93795a; stroke:none;" d="M346 273L347 274L346 273M384 273L385 274L384 273M546 273L547 274L546 273M584.333 273.667L584.667 274.333L584.333 273.667M594 273L595 274L594 273z"/>
<path style="fill:#57b25c; stroke:none;" d="M146 274L147 275L146 274M188 274L189 275L188 274M346 274L347 275L346 274z"/>
<path style="fill:#93795a; stroke:none;" d="M360 274L361 275L360 274M393 274L394 275L393 274M487 274L488 275L487 274M498 274L499 275L498 274M593 274L594 275L593 274z"/>
<path style="fill:#57b25c; stroke:none;" d="M147 275L148 276L147 275z"/>
<path style="fill:#93795a; stroke:none;" d="M166 275L166 303L168 303C169.493 292.889 173.283 284.253 166 275z"/>
<path style="fill:#57b25c; stroke:none;" d="M187 275L188 276L187 275z"/>
<path style="fill:#93795a; stroke:none;" d="M277 275L277 278L278 278L277 275M347 275L348 276L347 275M361 275L362 276L361 275M383 275L384 276L383 275M392 275L393 276L392 275M429 275L429 278L430 278L429 275M547 275L548 276L547 275M583 275L584 276L583 275z"/>
<path style="fill:#57b25c; stroke:none;" d="M148 276L149 277L148 276z"/>
<path style="fill:#93795a; stroke:none;" d="M348 276L349 277L348 276M362 276L363 277L362 276M382 276L383 277L382 276z"/>
<path style="fill:#57b25c; stroke:none;" d="M453 276L454 277L453 276z"/>
<path style="fill:#93795a; stroke:none;" d="M500 276L501 277L500 276M548 276L549 277L548 276z"/>
<path style="fill:#57b25c; stroke:none;" d="M582 276L583 277L582 276M592 276L593 277L592 276M149 277L150 278L149 277z"/>
<path style="fill:#93795a; stroke:none;" d="M241 277L242 278L241 277M253 277L254 278L253 277M312 277L313 278L312 277M324 277L325 278L324 277M363 277L364 278L363 277M381 277L382 278L381 277M416 277L417 278L416 277M453 277L454 278L453 277M504 277L504 278L512 278L504 277M549 277L550 278L549 277M564 277L565 278L564 277M581 277L582 278L581 277M591 277L592 278L591 277z"/>
<path style="fill:#57b25c; stroke:none;" d="M150 278L151 279L150 278M185 278L186 279L185 278z"/>
<path style="fill:#93795a; stroke:none;" d="M240 278L241 279L240 278M276 278L277 279L276 278M289 278L290 279L289 278M311 278L312 279L311 278M325 278L326 279L325 278M349 278L350 279L349 278M365 278L366 279L365 278M380 278L381 279L380 278M389 278L390 279L389 278M415 278L416 279L415 278M430 278L431 279L430 278M452 278L453 279L452 278M467 278L468 279L467 278M485.333 278.667L485.667 279.333L485.333 278.667M516 278L516 279L522 279L516 278M550 278L551 279L550 278M565 278L566 279L565 278M580 278L581 279L580 278M590 278L591 279L590 278z"/>
<path style="fill:#57b25c; stroke:none;" d="M165 279L165 284L166 284L165 279M184 279L185 280L184 279M237 279L238 280L237 279z"/>
<path style="fill:#93795a; stroke:none;" d="M238.667 279.333L239.333 279.667L238.667 279.333M255.667 279.333L256.333 279.667L255.667 279.333z"/>
<path style="fill:#57b25c; stroke:none;" d="M273 279L274 280L273 279z"/>
<path style="fill:#93795a; stroke:none;" d="M274.667 279.333L275.333 279.667L274.667 279.333M291.667 279.333L292.333 279.667L291.667 279.333z"/>
<path style="fill:#57b25c; stroke:none;" d="M293 279L294 280L293 279z"/>
<path style="fill:#93795a; stroke:none;" d="M309.667 279.333L310.333 279.667L309.667 279.333M327.667 279.333L328.333 279.667L327.667 279.333M350 279L351 280L350 279M367.667 279.333L368.333 279.667L367.667 279.333M378 279L379 280L378 279M388 279L389 280L388 279z"/>
<path style="fill:#57b25c; stroke:none;" d="M411 279L412 280L411 279z"/>
<path style="fill:#93795a; stroke:none;" d="M412 279L412 280L415 280L412 279M431 279L431 280L434 280L431 279M449 279L449 280L452 280L449 279M469 279L469 280L472 280L469 279M524 279L524 280L527 280L524 279M551 279L552 280L551 279M567.667 279.333L568.333 279.667L567.667 279.333M578.667 279.333L579.333 279.667L578.667 279.333M588 279L589 280L588 279z"/>
<path style="fill:#57b25c; stroke:none;" d="M183 280L184 281L183 280z"/>
<path style="fill:#93795a; stroke:none;" d="M233 280L233 285L234 285L236 281L233 280M258 280L258 281L261 281L258 280M269 280L269 281L272 281L269 280M294 280L294 281L297 281L294 280M305 280L305 285L306 285L308 281L305 280M330 280L330 281L333 281L330 280M370 280L370 281L377 281L370 280M387 280L388 281L387 280M409 280L410 281L409 280M436.667 280.333L437.333 280.667L436.667 280.333M446 280L447 281L446 280M486 280L487 281L486 280M527.667 280.333L528.333 280.667L527.667 280.333M552 280L553 281L552 280M570 280L570 281L577 281L570 280M587 280L588 281L587 280z"/>
<path style="fill:#57b25c; stroke:none;" d="M182 281L183 282L182 281z"/>
<path style="fill:#93795a; stroke:none;" d="M261 281L261 284L262 284L261 281M353 281L354 282L353 281M385 281L386 282L385 281M445 281L445 284L446 284L445 281M474 281L474 284L475 284L474 281M529 281L530 282L529 281M553 281L554 282L553 281M586 281L587 282L586 281z"/>
<path style="fill:#57b25c; stroke:none;" d="M181 282L182 283L181 282z"/>
<path style="fill:#93795a; stroke:none;" d="M354 282L355 283L354 282M384 282L385 283L384 282M487 282L488 283L487 282M555 282L556 283L555 282M584 282L585 283L584 282z"/>
<path style="fill:#57b25c; stroke:none;" d="M180 283L181 284L180 283z"/>
<path style="fill:#93795a; stroke:none;" d="M332.333 283.667L332.667 284.333L332.333 283.667M356 283L357 284L356 283M381 283L382 284L381 283z"/>
<path style="fill:#57b25c; stroke:none;" d="M382 283L383 284L382 283z"/>
<path style="fill:#93795a; stroke:none;" d="M556 283L557 284L556 283M582 283L583 284L582 283z"/>
<path style="fill:#57b25c; stroke:none;" d="M169 284L170 285L169 284z"/>
<path style="fill:#93795a; stroke:none;" d="M251 284L252 285L251 284M358.667 284.333L359.333 284.667L358.667 284.333M379 284L380 285L379 284M437 284L438 285L437 284z"/>
<path style="fill:#57b25c; stroke:none;" d="M445 284L446 285L445 284z"/>
<path style="fill:#93795a; stroke:none;" d="M490 284L491 285L490 284M559 284L560 285L559 284M579 284L580 285L579 284z"/>
<path style="fill:#57b25c; stroke:none;" d="M157 285L158 286L157 285M164 285L164 289L165 289L164 285z"/>
<path style="fill:#93795a; stroke:none;" d="M361.667 285.333L362.333 285.667L361.667 285.333M375.667 285.333L376.333 285.667L375.667 285.333M409 285L409 286L416 286L409 285z"/>
<path style="fill:#57b25c; stroke:none;" d="M416 285L417 286L416 285M430 285L431 286L430 285z"/>
<path style="fill:#93795a; stroke:none;" d="M431 285L431 286L437 286L431 285M446 285L446 286L454 286L446 285M467 285L467 286L474 286L467 285M492 285L493 286L492 285M533 285L534 286L533 285M562 285L563 286L562 285M575.667 285.333L576.333 285.667L575.667 285.333z"/>
<path style="fill:#57b25c; stroke:none;" d="M158 286L159 287L158 286M170 286L171 287L170 286M176 286L177 287L176 286z"/>
<path style="fill:#93795a; stroke:none;" d="M367 286L367 287L372 287L367 286M568 286L568 287L572 287L568 286z"/>
<path style="fill:#57b25c; stroke:none;" d="M159 287L160 288L159 287M171 287L172 288L171 287M175 287L176 288L175 287z"/>
<path style="fill:#93795a; stroke:none;" d="M500 287L500 288L509 288L500 287M534 287L535 288L534 287z"/>
<path style="fill:#57b25c; stroke:none;" d="M160 288L161 289L160 288M172.333 288.667L172.667 289.333L172.333 288.667M174 288L175 289L174 288z"/>
<path style="fill:#93795a; stroke:none;" d="M490 288L491 289L490 288M497 288L498 289L497 288z"/>
<path style="fill:#ffffff; stroke:none;" d="M498.001 288.742C490.127 291.766 487.554 301.589 494.214 307.211C500.083 312.165 510.041 312.9 517 309.995C524.134 307.015 529.019 297.437 521.856 291.652C516.548 287.366 504.303 286.322 498.001 288.742z"/>
<path style="fill:#93795a; stroke:none;" d="M514.667 288.333L515.333 288.667L514.667 288.333z"/>
<path style="fill:#57b25c; stroke:none;" d="M162 289L163 290L162 289z"/>
<path style="fill:#93795a; stroke:none;" d="M489 289L490 290L489 289M495 289L496 290L495 289M518.667 289.333L519.333 289.667L518.667 289.333z"/>
<path style="fill:#57b25c; stroke:none;" d="M163 290L164 291L163 290z"/>
<path style="fill:#93795a; stroke:none;" d="M487 290L488 291L487 290M494 290L495 291L494 290M520.667 290.333L521.333 290.667L520.667 290.333M535 290L535 295L536 295L535 290z"/>
<path style="fill:#57b25c; stroke:none;" d="M171 291L172 292L171 291z"/>
<path style="fill:#93795a; stroke:none;" d="M486 291L487 292L486 291M493 291L494 292L493 291M522 291L523 292L522 291M485 292L486 293L485 292M492 292L493 293L492 292M523 292L524 293L523 292z"/>
<path style="fill:#57b25c; stroke:none;" d="M170 293L166 308C169.829 305.124 171.596 297.452 170 293z"/>
<path style="fill:#93795a; stroke:none;" d="M484 293L485 294L484 293M491 293L492 294L491 293M524 293L525 294L524 293z"/>
<path style="fill:#57b25c; stroke:none;" d="M164 294L165 295L164 294z"/>
<path style="fill:#93795a; stroke:none;" d="M483 294L484 295L483 294M482 295L483 296L482 295M490 295L491 296L490 295M525.333 295.667L525.667 296.333L525.333 295.667z"/>
<path style="fill:#57b25c; stroke:none;" d="M535 295L536 296L535 295z"/>
<path style="fill:#93795a; stroke:none;" d="M481 296L482 297L481 296z"/>
<path style="fill:#57b25c; stroke:none;" d="M525 297L526 298L525 297M165 298L165 301L166 301L165 298z"/>
<path style="fill:#93795a; stroke:none;" d="M480 298L481 299L480 298M534 298L535 299L534 298M525 300L525 303L526 303L525 300M479.333 301.667L479.667 302.333L479.333 301.667M533 301L534 302L533 301M490 302L491 303L490 302M491 304L492 305L491 304M524 304L525 305L524 304M531 304L532 305L531 304M480.333 305.667L480.667 306.333L480.333 305.667M523 305L524 306L523 305M530 305L531 306L530 305z"/>
<path style="fill:#57b25c; stroke:none;" d="M522 306L523 307L522 306z"/>
<path style="fill:#93795a; stroke:none;" d="M494 307L495 308L494 307M521 307L522 308L521 307z"/>
<path style="fill:#57b25c; stroke:none;" d="M529 307L530 308L529 307z"/>
<path style="fill:#93795a; stroke:none;" d="M481 308L482 309L481 308M495 308L496 309L495 308M520 308L521 309L520 308M528 308L529 309L528 308M482 309L483 310L482 309M496.667 309.333L497.333 309.667L496.667 309.333M518.667 309.333L519.333 309.667L518.667 309.333z"/>
<path style="fill:#57b25c; stroke:none;" d="M527 309L528 310L527 309z"/>
<path style="fill:#93795a; stroke:none;" d="M499 310L500 311L499 310M516 310L517 311L516 310M525 310L526 311L525 310M483 311L484 312L483 311M502 311L502 312L506 312L502 311M510 311L510 312L514 312L510 311M524 311L525 312L524 311M484 312L485 313L484 312M523 312L524 313L523 312M485 313L486 314L485 313M521 313L522 314L521 313M487 314L488 315L487 314M519 314L520 315L519 314M488 315L489 316L488 315M517 315L518 316L517 315M490 316L491 317L490 316M515 316L516 317L515 316M492 317L492 318L495 318L492 317M511.667 317.333L512.333 317.667L511.667 317.333M496 318L496 319L509 319L496 318z"/>
</svg>
