<?xml version="1.0" encoding="utf-8"?>
<!-- Generator: Adobe Illustrator 22.1.0, SVG Export Plug-In . SVG Version: 6.00 Build 0)  -->
<svg version="1.1" xmlns="http://www.w3.org/2000/svg" xmlns:xlink="http://www.w3.org/1999/xlink" x="0px" y="0px"
	 viewBox="0 0 199.135 124.347" enable-background="new 0 0 199.135 124.347" xml:space="preserve">
<g id="Camada_1">
	<g>
		<g>
			<path fill="#679E63" d="M98.611,113.244c-0.55,0-1.098-0.144-1.58-0.423l-5.029-2.975c-0.75-0.42-0.384-0.569-0.136-0.655
				c1.002-0.348,1.204-0.428,2.274-1.034c0.111-0.063,0.259-0.039,0.374,0.029l3.863,2.294c0.14,0.078,0.338,0.078,0.467,0
				l15.061-8.693c0.14-0.08,0.23-0.241,0.23-0.408V83.997c0-0.17-0.09-0.329-0.234-0.415l-15.055-8.686
				c-0.139-0.081-0.324-0.081-0.464,0L83.33,83.584c-0.146,0.084-0.239,0.248-0.239,0.413v17.381c0,0.166,0.092,0.324,0.238,0.403
				l4.126,2.384c2.239,1.119,3.609-0.199,3.609-1.523V85.48c0-0.243,0.195-0.434,0.438-0.434h1.91c0.239,0,0.436,0.191,0.436,0.434
				v17.161c0,2.988-1.627,4.701-4.46,4.701c-0.87,0-1.556,0-3.469-0.943l-3.95-2.274c-0.975-0.564-1.58-1.618-1.58-2.748V83.997
				c0-1.129,0.604-2.184,1.58-2.745l15.061-8.703c0.953-0.539,2.22-0.539,3.165,0l15.06,8.703c0.975,0.564,1.582,1.616,1.582,2.745
				v17.381c0,1.129-0.607,2.18-1.582,2.748l-15.06,8.696C99.715,113.101,99.168,113.244,98.611,113.244z"/>
			<path fill="#679E63" d="M103.263,101.27c-6.591,0-7.972-3.025-7.972-5.563c0-0.241,0.194-0.434,0.435-0.434h1.947
				c0.218,0,0.399,0.156,0.433,0.369c0.294,1.982,1.171,2.983,5.156,2.983c3.173,0,4.524-0.718,4.524-2.401
				c0-0.97-0.383-1.691-5.314-2.174c-4.121-0.408-6.67-1.318-6.67-4.615c0-3.039,2.561-4.851,6.856-4.851
				c4.825,0,7.212,1.675,7.515,5.268c0.011,0.124-0.033,0.243-0.115,0.335c-0.083,0.086-0.198,0.139-0.319,0.139h-1.955
				c-0.203,0-0.382-0.144-0.423-0.34c-0.469-2.086-1.61-2.753-4.704-2.753c-3.464,0-3.867,1.207-3.867,2.111
				c0,1.096,0.475,1.414,5.153,2.034c4.629,0.612,6.827,1.478,6.827,4.731C110.772,99.39,108.035,101.27,103.263,101.27z"/>
		</g>
		<g>
			<path fill="#679E63" d="M124.981,83.041c0,1.597-1.306,2.903-2.903,2.903c-1.582,0-2.903-1.29-2.903-2.903
				c0-1.643,1.352-2.903,2.903-2.903C123.645,80.137,124.981,81.397,124.981,83.041z M119.644,83.033
				c0,1.352,1.09,2.442,2.426,2.442c1.352,0,2.442-1.114,2.442-2.442c0-1.351-1.105-2.426-2.442-2.426
				C120.75,80.606,119.644,81.666,119.644,83.033z M120.987,81.412h1.122c0.384,0,1.137,0,1.137,0.86
				c0,0.599-0.384,0.722-0.615,0.798c0.446,0.031,0.477,0.323,0.538,0.737c0.031,0.261,0.078,0.707,0.169,0.86h-0.69
				c-0.016-0.153-0.124-0.983-0.124-1.029c-0.045-0.185-0.108-0.276-0.338-0.276h-0.568v1.305h-0.63V81.412z M121.603,82.841h0.507
				c0.414,0,0.492-0.291,0.492-0.46c0-0.446-0.308-0.446-0.477-0.446h-0.521V82.841z"/>
		</g>
		<path fill-rule="evenodd" clip-rule="evenodd" fill="#333333" d="M51.971,45.241c0-0.694-0.365-1.332-0.964-1.676l-15.968-9.19
			c-0.27-0.159-0.573-0.241-0.879-0.254c-0.028,0-0.143,0-0.165,0c-0.305,0.013-0.608,0.095-0.882,0.254l-15.968,9.19
			c-0.595,0.344-0.965,0.982-0.965,1.676l0.035,24.745c0,0.344,0.179,0.664,0.482,0.833c0.296,0.178,0.663,0.178,0.958,0l9.49-5.434
			c0.6-0.356,0.965-0.985,0.965-1.673V52.15c0-0.689,0.365-1.327,0.963-1.67l4.041-2.327c0.301-0.174,0.63-0.259,0.967-0.259
			c0.329,0,0.667,0.085,0.959,0.259l4.04,2.327c0.598,0.343,0.964,0.98,0.964,1.67v11.561c0,0.688,0.37,1.321,0.967,1.673
			l9.487,5.434c0.298,0.178,0.669,0.178,0.964,0c0.294-0.169,0.479-0.489,0.479-0.833L51.971,45.241z"/>
		<path fill-rule="evenodd" clip-rule="evenodd" fill="#333333" d="M128.804,11.224c-0.299-0.166-0.664-0.163-0.959,0.011
			c-0.295,0.173-0.476,0.49-0.476,0.832v24.506c0,0.241-0.129,0.464-0.337,0.585c-0.209,0.121-0.467,0.121-0.675,0l-3.999-2.304
			c-0.597-0.344-1.331-0.343-1.927,0.001l-15.974,9.219c-0.597,0.345-0.965,0.981-0.965,1.67v18.442
			c0,0.689,0.368,1.326,0.964,1.671l15.974,9.226c0.597,0.345,1.333,0.345,1.93,0l15.976-9.226c0.597-0.345,0.964-0.982,0.964-1.671
			V18.214c0-0.699-0.378-1.344-0.989-1.685L128.804,11.224z M127.322,58.125c0,0.172-0.092,0.331-0.241,0.417l-5.485,3.162
			c-0.149,0.086-0.333,0.086-0.481,0l-5.485-3.162c-0.149-0.086-0.241-0.245-0.241-0.417v-6.333c0-0.172,0.092-0.331,0.241-0.418
			l5.485-3.168c0.149-0.086,0.333-0.086,0.483,0l5.485,3.168c0.149,0.086,0.241,0.246,0.241,0.418V58.125z"/>
		<g>
			<path fill-rule="evenodd" clip-rule="evenodd" fill="#333333" d="M181.997,51.626c0.594-0.345,0.96-0.98,0.96-1.668v-4.469
				c0-0.687-0.366-1.323-0.96-1.668l-15.872-9.215c-0.597-0.347-1.334-0.348-1.933-0.003l-15.969,9.219
				c-0.597,0.345-0.964,0.981-0.964,1.67v18.437c0,0.693,0.372,1.333,0.974,1.676l15.869,9.043c0.585,0.334,1.303,0.338,1.892,0.011
				l9.599-5.335c0.305-0.169,0.494-0.489,0.496-0.837c0.003-0.348-0.182-0.67-0.484-0.843l-16.07-9.223
				c-0.3-0.172-0.485-0.492-0.485-0.837v-5.778c0-0.344,0.184-0.663,0.483-0.835l5.001-2.883c0.298-0.172,0.665-0.172,0.963,0
				l5.004,2.883c0.299,0.172,0.483,0.491,0.483,0.835v4.546c0,0.345,0.185,0.664,0.483,0.836c0.299,0.173,0.667,0.171,0.965-0.002
				L181.997,51.626z"/>
			<path fill-rule="evenodd" clip-rule="evenodd" fill="#679E63" d="M164.922,50.763c0.114-0.066,0.256-0.066,0.37,0l3.065,1.768
				c0.115,0.066,0.185,0.188,0.185,0.321v3.539c0,0.133-0.071,0.254-0.185,0.321l-3.065,1.768c-0.114,0.066-0.256,0.066-0.37,0
				l-3.063-1.768c-0.114-0.066-0.185-0.188-0.185-0.321v-3.539c0-0.133,0.071-0.254,0.185-0.321L164.922,50.763z"/>
		</g>
		<g>
			<defs>
				<path id="XMLID_12_" d="M78.692,34.699c-0.593-0.343-1.325-0.343-1.918,0l-15.885,9.167c-0.594,0.343-0.96,0.976-0.96,1.662
					v18.347c0,0.685,0.366,1.318,0.959,1.662l15.885,9.174c0.594,0.343,1.325,0.343,1.919,0l15.881-9.174
					c0.593-0.343,0.959-0.976,0.959-1.662V45.527c0-0.685-0.366-1.318-0.96-1.661L78.692,34.699z"/>
			</defs>
			<linearGradient id="XMLID_16_" gradientUnits="userSpaceOnUse" x1="84.1894" y1="41.5261" x2="69.8386" y2="70.8017">
				<stop  offset="0" style="stop-color:#3F873F"/>
				<stop  offset="0.3296" style="stop-color:#3F8B3D"/>
				<stop  offset="0.6367" style="stop-color:#3E9638"/>
				<stop  offset="0.9341" style="stop-color:#3DA92E"/>
				<stop  offset="1" style="stop-color:#3DAE2B"/>
			</linearGradient>
			<use xlink:href="#XMLID_12_"  overflow="visible" fill-rule="evenodd" clip-rule="evenodd" fill="url(#XMLID_16_)"/>
			<clipPath id="XMLID_17_">
				<use xlink:href="#XMLID_12_"  overflow="visible"/>
			</clipPath>
			<g clip-path="url(#XMLID_17_)">
				<path fill="none" d="M76.741,34.699l-15.918,9.167c-0.594,0.343-1.026,0.976-1.026,1.662v18.348
					c0,0.453,0.194,0.882,0.495,1.221l17.885-30.595C77.696,34.383,77.177,34.448,76.741,34.699z"/>
				<path fill="none" d="M78.265,74.897c0.155-0.043,0.305-0.104,0.447-0.186l15.901-9.174c0.593-0.343,0.999-0.976,0.999-1.662
					V45.527c0-0.504-0.225-0.98-0.58-1.332L78.265,74.897z"/>
				<linearGradient id="SVGID_2_" gradientUnits="userSpaceOnUse" x1="75.3131" y1="56.8473" x2="115.5804" y2="27.0957">
					<stop  offset="0.1376" style="stop-color:#3F873F"/>
					<stop  offset="0.4016" style="stop-color:#52A044"/>
					<stop  offset="0.7129" style="stop-color:#64B749"/>
					<stop  offset="0.9081" style="stop-color:#6ABF4B"/>
				</linearGradient>
				<path fill="url(#SVGID_2_)" d="M94.604,43.866l-15.929-9.167c-0.157-0.091-0.325-0.156-0.499-0.198L60.291,65.096
					c0.154,0.173,0.335,0.325,0.535,0.441l15.956,9.174c0.452,0.261,0.989,0.322,1.482,0.186l16.767-30.702
					C94.904,44.068,94.761,43.957,94.604,43.866z"/>
			</g>
			<g clip-path="url(#XMLID_17_)">
				<path fill="none" d="M95.612,63.875V45.527c0-0.685-0.414-1.318-1.008-1.661l-15.929-9.167
					c-0.183-0.106-0.381-0.175-0.585-0.215l17.462,29.832C95.589,64.173,95.612,64.026,95.612,63.875z"/>
				<path fill="none" d="M60.823,43.866c-0.594,0.343-1.026,0.976-1.026,1.662v18.348c0,0.685,0.437,1.318,1.031,1.662l15.956,9.174
					c0.375,0.217,0.809,0.295,1.228,0.238L60.918,43.811L60.823,43.866z"/>
				<linearGradient id="SVGID_4_" gradientUnits="userSpaceOnUse" x1="59.3674" y1="31.392" x2="96.0944" y2="31.392">
					<stop  offset="0.0919" style="stop-color:#6ABF4B"/>
					<stop  offset="0.2871" style="stop-color:#64B749"/>
					<stop  offset="0.5984" style="stop-color:#52A044"/>
					<stop  offset="0.8624" style="stop-color:#3F873F"/>
				</linearGradient>
				<polygon fill="url(#SVGID_4_)" points="76.244,31.33 76.026,31.454 76.317,31.454 				"/>
				<linearGradient id="SVGID_6_" gradientUnits="userSpaceOnUse" x1="59.3674" y1="54.6976" x2="96.0944" y2="54.6976">
					<stop  offset="0.0919" style="stop-color:#6ABF4B"/>
					<stop  offset="0.2871" style="stop-color:#64B749"/>
					<stop  offset="0.5984" style="stop-color:#52A044"/>
					<stop  offset="0.8624" style="stop-color:#3F873F"/>
				</linearGradient>
				<path fill="url(#SVGID_6_)" d="M94.613,65.537c0.463-0.268,0.808-0.713,0.939-1.221L78.091,34.484
					c-0.456-0.091-0.94-0.022-1.35,0.215l-15.822,9.111l17.093,31.139c0.244-0.033,0.483-0.112,0.702-0.238L94.613,65.537z"/>
				<linearGradient id="SVGID_8_" gradientUnits="userSpaceOnUse" x1="59.3674" y1="65.1824" x2="96.0944" y2="65.1824">
					<stop  offset="0.0919" style="stop-color:#6ABF4B"/>
					<stop  offset="0.2871" style="stop-color:#64B749"/>
					<stop  offset="0.5984" style="stop-color:#52A044"/>
					<stop  offset="0.8624" style="stop-color:#3F873F"/>
				</linearGradient>
				<polygon fill="url(#SVGID_8_)" points="96.094,65.242 95.989,65.062 95.989,65.303 				"/>
				<linearGradient id="SVGID_10_" gradientUnits="userSpaceOnUse" x1="59.3674" y1="69.9213" x2="96.0944" y2="69.9213">
					<stop  offset="0.0919" style="stop-color:#6ABF4B"/>
					<stop  offset="0.2871" style="stop-color:#64B749"/>
					<stop  offset="0.5984" style="stop-color:#52A044"/>
					<stop  offset="0.8624" style="stop-color:#3F873F"/>
				</linearGradient>
				<path fill="url(#SVGID_10_)" d="M94.613,65.537l-15.901,9.174c-0.219,0.126-0.458,0.205-0.702,0.238l0.317,0.577l17.662-10.224
					v-0.241l-0.437-0.746C95.422,64.824,95.076,65.269,94.613,65.537z"/>
				<linearGradient id="SVGID_12_" gradientUnits="userSpaceOnUse" x1="101.4451" y1="40.6581" x2="78.7942" y2="86.866">
					<stop  offset="0" style="stop-color:#3F873F"/>
					<stop  offset="0.3296" style="stop-color:#3F8B3D"/>
					<stop  offset="0.6367" style="stop-color:#3E9638"/>
					<stop  offset="0.9341" style="stop-color:#3DA92E"/>
					<stop  offset="1" style="stop-color:#3DAE2B"/>
				</linearGradient>
				<path fill="url(#SVGID_12_)" d="M94.613,65.537l-15.901,9.174c-0.219,0.126-0.458,0.205-0.702,0.238l0.317,0.577l17.662-10.224
					v-0.241l-0.437-0.746C95.422,64.824,95.076,65.269,94.613,65.537z"/>
			</g>
		</g>
	</g>
</g>
<g id="Camada_2" display="none">
</g>
</svg>
